<svg width="24" height="24" viewBox="0 0 24 24" fill="none" xmlns="http://www.w3.org/2000/svg">
<g clip-path="url(#clip0_6316_14337)">
<path d="M8 0C4.967 0 2.5 2.467 2.5 5.5V8.25C2.5 9.215 3.285 10 4.25 10H8C6.063 10 4.5 8.437 4.5 6.5C6.833 6.5 8 4.75 8 3C8 4.75 9.167 6.5 11.5 6.5C11.5 8.437 9.937 10 8 10H11.75C12.715 10 13.5 9.215 13.5 8.25V5.5C13.5 2.467 11.033 0 8 0Z" fill="#FF7A00"/>
<path d="M11.706 12H3.75C1.682 12 0 13.682 0 15.75V19.25C0 19.664 0.336 20 0.75 20H9.906C8.968 17.161 9.69 14.123 11.706 12Z" fill="#FF7A00"/>
<path d="M17.5 11C13.916 11 11 13.916 11 17.5C11 21.084 13.916 24 17.5 24C21.084 24 24 21.084 24 17.5C24 13.916 21.084 11 17.5 11ZM17.5 12.5C18.608 12.5 19.623 12.874 20.453 13.487L13.486 20.453C12.874 19.623 12.5 18.608 12.5 17.5C12.5 14.743 14.743 12.5 17.5 12.5ZM17.5 22.5C16.392 22.5 15.377 22.126 14.547 21.513L21.514 14.547C22.126 15.377 22.5 16.392 22.5 17.5C22.5 20.257 20.257 22.5 17.5 22.5Z" fill="#FF7A00"/>
</g>
<defs>
<clipPath id="clip0_6316_14337">
<rect width="24" height="24" fill="white"/>
</clipPath>
</defs>
</svg>
