<svg width="24" height="24" viewBox="0 0 24 24" fill="none" xmlns="http://www.w3.org/2000/svg">
<g clip-path="url(#clip0_6303_14670)">
<path d="M19.5 24H4.5C2.0145 24 0 21.9855 0 19.5V4.5C0 2.0145 2.0145 0 4.5 0H19.5C21.9855 0 24 2.0145 24 4.5V19.5C24 21.9855 21.9855 24 19.5 24Z" fill="white"/>
<path d="M14.4998 18H7.5C6.67275 18 6 17.3272 6 16.5V9.50024C6 8.67299 6.67275 8.00024 7.5 8.00024H11.4998C11.7758 8.00024 12 8.22449 12 8.50049C12 8.77649 11.7765 8.99999 11.4998 8.99999H7.5C7.224 8.99999 6.99975 9.22424 6.99975 9.50024V16.5C6.99975 16.776 7.224 17.0002 7.5 17.0002H14.4998C14.7758 17.0002 15 16.776 15 16.5V12.4995C15 12.2235 15.2235 12 15.5002 12C15.7762 12 16.0005 12.2242 16.0005 12.5002V16.5C15.9997 17.3272 15.327 18 14.4998 18Z" fill="#023B88"/>
<path d="M14.6444 7.58861L10.6881 11.5449C10.6529 11.5801 10.6296 11.6244 10.6199 11.6724L10.2666 13.4401C10.2501 13.5219 10.2756 13.6066 10.3349 13.6659C10.3821 13.7131 10.4459 13.7394 10.5119 13.7394C10.5276 13.7394 10.5449 13.7379 10.5606 13.7341L12.3284 13.3809C12.3771 13.3711 12.4214 13.3471 12.4566 13.3126L16.4129 9.35636L14.6444 7.58861Z" fill="#023B88"/>
<path d="M17.6358 6.36611C17.1483 5.87861 16.3555 5.87861 15.868 6.36611L15.1758 7.05836L16.9435 8.82611L17.6358 8.13386C17.872 7.89836 18.0018 7.58411 18.0018 7.25036C18.0018 6.91661 17.872 6.60236 17.6358 6.36611Z" fill="#023B88"/>
</g>
<defs>
<clipPath id="clip0_6303_14670">
<rect width="24" height="24" fill="white"/>
</clipPath>
</defs>
</svg>
