<svg width="27" height="25" viewBox="0 0 27 25" fill="none" xmlns="http://www.w3.org/2000/svg">
<path d="M22.6667 0H4C2.93913 0 1.92172 0.421428 1.17157 1.17157C0.421427 1.92172 0 2.93913 0 4V16C0 17.0609 0.421427 18.0783 1.17157 18.8284C1.92172 19.5786 2.93913 20 4 20H7.78667C7.98694 20.0009 8.18443 20.047 8.36448 20.1347C8.54452 20.2224 8.7025 20.3495 8.82667 20.5067L11.2533 23.5333C11.5032 23.8448 11.8198 24.0961 12.1798 24.2689C12.5398 24.4416 12.934 24.5313 13.3333 24.5313C13.7326 24.5313 14.1268 24.4416 14.4868 24.2689C14.8468 24.0961 15.1635 23.8448 15.4133 23.5333L17.84 20.5067C17.9642 20.3495 18.1221 20.2224 18.3022 20.1347C18.4822 20.047 18.6797 20.0009 18.88 20H22.6667C23.7275 20 24.7449 19.5786 25.4951 18.8284C26.2452 18.0783 26.6667 17.0609 26.6667 16V4C26.6667 2.93913 26.2452 1.92172 25.4951 1.17157C24.7449 0.421428 23.7275 0 22.6667 0Z" fill="#EA3333"/>
<path d="M13.3333 11.9999C12.9797 11.9999 12.6406 11.8594 12.3905 11.6094C12.1405 11.3593 12 11.0202 12 10.6666V6.66659C12 6.31296 12.1405 5.97382 12.3905 5.72378C12.6406 5.47373 12.9797 5.33325 13.3333 5.33325C13.687 5.33325 14.0261 5.47373 14.2761 5.72378C14.5262 5.97382 14.6667 6.31296 14.6667 6.66659V10.6666C14.6667 11.0202 14.5262 11.3593 14.2761 11.6094C14.0261 11.8594 13.687 11.9999 13.3333 11.9999Z" fill="white"/>
<path d="M13.3333 15.6667C14.0697 15.6667 14.6667 15.0697 14.6667 14.3333C14.6667 13.597 14.0697 13 13.3333 13C12.597 13 12 13.597 12 14.3333C12 15.0697 12.597 15.6667 13.3333 15.6667Z" fill="white"/>
</svg>
