<svg width="333" height="136" viewBox="0 0 333 136" fill="none" xmlns="http://www.w3.org/2000/svg">
<g opacity="0.6" clip-path="url(#clip0_4066_19849)">
<path d="M-0.150391 107.132H21.9621V91.6126H28.9551V76.4273L38.0294 67.3328H58.0926V107.132H63.0876V79.876H77.7396V90.6114H71.0796V50.3954H87.0636V123.743H95.8881V89.6101L102.715 81.7672V36.9423L140.344 7.0166V97.9362H133.684V63.2445H150.667V83.4359H159.158V25.5024H178.472V89.8449H170.48V58.2384H194.956V75.0924H202.615V113.023H196.834V84.9378H209.608V50.2095L215.602 44.2022V31.0193L229.421 21.8656V87.1071H244.066V105.457H237.58V69.085L252.315 54.3169V123.743H258.392V47.8473L267.883 38.3356H282.202L291.026 47.5136V114.214H296.354V80.4322H310.84V107.132H333.151" stroke="#B4D4FF" stroke-miterlimit="10" stroke-linejoin="round"/>
<path d="M140.344 7.0166L152.163 18.8628V56.8331" stroke="#B4D4FF" stroke-miterlimit="10" stroke-linecap="round"/>
<path d="M178.473 25.502L186.957 34.0052V58.2379" stroke="#B4D4FF" stroke-miterlimit="10" stroke-linecap="round"/>
<path d="M229.422 21.8652L239.197 31.6624V66.9635" stroke="#B4D4FF" stroke-miterlimit="10" stroke-linecap="round"/>
<path d="M282.203 38.3359V134.944" stroke="#B4D4FF" stroke-miterlimit="10" stroke-linecap="round"/>
<path d="M267.883 38.3359V113.244" stroke="#B4D4FF" stroke-miterlimit="10" stroke-linecap="round"/>
<path d="M310.84 80.4326L319.053 88.6642V118.272" stroke="#B4D4FF" stroke-miterlimit="10" stroke-linecap="round"/>
<path d="M87.0625 63.1084L98.1331 74.2035V86.6397" stroke="#B4D4FF" stroke-miterlimit="10" stroke-linecap="round"/>
<path d="M87.0645 50.3955L94.8688 58.2173V70.9297" stroke="#B4D4FF" stroke-miterlimit="10" stroke-linecap="round"/>
<path d="M38.0293 67.3329V117.547" stroke="#B4D4FF" stroke-miterlimit="10" stroke-linecap="round"/>
<path d="M21.9626 91.6133L15.7129 97.877V113.907" stroke="#B4D4FF" stroke-miterlimit="10" stroke-linecap="round"/>
<path d="M71.08 50.3955L64.7793 56.7102V79.8761" stroke="#B4D4FF" stroke-miterlimit="10" stroke-linecap="round"/>
<path d="M102.715 46.4001L140.344 16.4746" stroke="#B4D4FF" stroke-miterlimit="10" stroke-linecap="round"/>
<path d="M102.715 56.8337L140.344 26.9082" stroke="#B4D4FF" stroke-miterlimit="10" stroke-linecap="round"/>
<path d="M102.715 67.2655L140.344 37.3398" stroke="#B4D4FF" stroke-miterlimit="10" stroke-linecap="round"/>
<path d="M102.715 77.6989L140.344 47.7734" stroke="#B4D4FF" stroke-miterlimit="10" stroke-linecap="round"/>
<path d="M102.715 88.1302C102.715 88.1302 119.166 75.0467 130.313 66.1816" stroke="#B4D4FF" stroke-miterlimit="10" stroke-linecap="round"/>
<path d="M102.715 98.5636C102.715 98.5636 119.142 85.4995 130.289 76.6348" stroke="#B4D4FF" stroke-miterlimit="10" stroke-linecap="round"/>
<path d="M102.715 108.996C102.715 108.996 119.044 96.0097 130.189 87.1465" stroke="#B4D4FF" stroke-miterlimit="10" stroke-linecap="round"/>
<path d="M102.715 119.428C102.715 119.428 117.049 108.028 128.023 99.3008" stroke="#B4D4FF" stroke-miterlimit="10" stroke-linecap="round"/>
<path d="M150.668 63.2441L156.316 68.9052V99.2256" stroke="#B4D4FF" stroke-miterlimit="10" stroke-linecap="round"/>
<path d="M170.48 58.2384L164.559 64.1732V105.457" stroke="#B4D4FF" stroke-miterlimit="10" stroke-linecap="round"/>
<path d="M194.957 58.2383L199.288 62.5791V74.8737" stroke="#B4D4FF" stroke-miterlimit="10" stroke-linejoin="round"/>
<path d="M215.602 44.2021V97.1085" stroke="#B4D4FF" stroke-miterlimit="10" stroke-linecap="round"/>
<path d="M159.158 31.4375H178.472" stroke="#B4D4FF" stroke-miterlimit="10" stroke-linecap="round"/>
<path d="M159.158 36.1736H178.472" stroke="#B4D4FF" stroke-miterlimit="10" stroke-linecap="round"/>
<path d="M159.158 40.9092H178.472" stroke="#B4D4FF" stroke-miterlimit="10" stroke-linecap="round"/>
<path d="M159.158 45.6455H178.472" stroke="#B4D4FF" stroke-miterlimit="10" stroke-linecap="round"/>
<path d="M159.158 50.381H178.472" stroke="#B4D4FF" stroke-miterlimit="10" stroke-linecap="round"/>
<path d="M159.158 55.1172H178.472" stroke="#B4D4FF" stroke-miterlimit="10" stroke-linecap="round"/>
<path d="M49.9257 67.3329L38.0293 74.8738" stroke="#B4D4FF" stroke-miterlimit="10" stroke-linecap="round"/>
<path d="M58.0913 68.1543L38.7656 80.4043" stroke="#B4D4FF" stroke-miterlimit="10" stroke-linecap="round"/>
<path d="M58.0913 75.2051L38.7656 87.4551" stroke="#B4D4FF" stroke-miterlimit="10" stroke-linecap="round"/>
<path d="M58.0913 82.2559L38.7656 94.5059" stroke="#B4D4FF" stroke-miterlimit="10" stroke-linecap="round"/>
<path d="M58.0913 89.3066L38.7656 101.557" stroke="#B4D4FF" stroke-miterlimit="10" stroke-linecap="round"/>
<path d="M58.0913 96.3574L38.7656 108.607" stroke="#B4D4FF" stroke-miterlimit="10" stroke-linecap="round"/>
<path d="M21.9629 95.4314H29.2879" stroke="#B4D4FF" stroke-miterlimit="10" stroke-linecap="round"/>
<path d="M21.9609 98.5635H29.2859" stroke="#B4D4FF" stroke-miterlimit="10" stroke-linecap="round"/>
<path d="M21.9629 101.695H29.2879" stroke="#B4D4FF" stroke-miterlimit="10" stroke-linecap="round"/>
<path d="M229.422 27.2412L239.197 37.0386" stroke="#B4D4FF" stroke-miterlimit="10" stroke-linejoin="round"/>
<path d="M229.422 34.4043L239.197 44.2015" stroke="#B4D4FF" stroke-miterlimit="10" stroke-linejoin="round"/>
<path d="M229.422 41.5684L239.197 51.3655" stroke="#B4D4FF" stroke-miterlimit="10" stroke-linejoin="round"/>
<path d="M229.422 48.7324L239.197 58.5298" stroke="#B4D4FF" stroke-miterlimit="10" stroke-linejoin="round"/>
<path d="M229.422 55.8955L239.197 65.6928" stroke="#B4D4FF" stroke-miterlimit="10" stroke-linejoin="round"/>
<path d="M218.793 29.4053V82.7563" stroke="#B4D4FF" stroke-miterlimit="10" stroke-linecap="round"/>
<path d="M222.426 26.6797V80.0307" stroke="#B4D4FF" stroke-miterlimit="10" stroke-linecap="round"/>
<path d="M226.057 23.9551V77.3061" stroke="#B4D4FF" stroke-miterlimit="10" stroke-linecap="round"/>
<path d="M170.48 89.8457V119.429" stroke="#B4D4FF" stroke-miterlimit="10" stroke-linecap="round"/>
<path d="M178.473 89.8457V108.608" stroke="#B4D4FF" stroke-miterlimit="10" stroke-linecap="round"/>
<path d="M170.48 75.2051H178.472" stroke="#B4D4FF" stroke-miterlimit="10" stroke-linecap="round"/>
<path d="M174.477 58.2383V89.8448" stroke="#B4D4FF" stroke-miterlimit="10" stroke-linecap="round"/>
<path d="M186.957 39.3037L193.997 46.359V58.5294" stroke="#B4D4FF" stroke-miterlimit="10" stroke-linecap="round"/>
<path d="M133.684 63.2441L140.045 69.62" stroke="#B4D4FF" stroke-miterlimit="10" stroke-linecap="round"/>
<path d="M133.684 69.6204L140.045 75.9962" stroke="#B4D4FF" stroke-miterlimit="10" stroke-linecap="round"/>
<path d="M133.684 75.9961L140.045 82.3719" stroke="#B4D4FF" stroke-miterlimit="10" stroke-linecap="round"/>
<path d="M133.684 82.3719L140.045 88.7479" stroke="#B4D4FF" stroke-miterlimit="10" stroke-linecap="round"/>
<path d="M133.684 88.7479L140.045 95.1237" stroke="#B4D4FF" stroke-miterlimit="10" stroke-linecap="round"/>
<path d="M300.705 80.5466V123.743" stroke="#B4D4FF" stroke-miterlimit="10" stroke-linecap="round"/>
<path d="M305.842 80.5466V123.743" stroke="#B4D4FF" stroke-miterlimit="10" stroke-linecap="round"/>
<path d="M291.027 114.214V128.408" stroke="#B4D4FF" stroke-miterlimit="10" stroke-linecap="round"/>
<path d="M296.355 114.215V121.769" stroke="#B4D4FF" stroke-miterlimit="10" stroke-linecap="round"/>
<path d="M252.316 54.3164L256.014 61.4453V136.067" stroke="#B4D4FF" stroke-miterlimit="10" stroke-linejoin="round"/>
</g>
<defs>
<clipPath id="clip0_4066_19849">
<rect width="333" height="136" fill="white"/>
</clipPath>
</defs>
</svg>
