<svg width="20" height="20" viewBox="0 0 20 20" fill="none" xmlns="http://www.w3.org/2000/svg">
<path fill-rule="evenodd" clip-rule="evenodd" d="M13.6757 2.30751L13.6766 2.93219C15.9721 3.1121 17.4885 4.67632 17.4909 7.07512L17.5 14.0966C17.5033 16.712 15.8602 18.3212 13.2265 18.3253L6.79324 18.3336C4.17599 18.337 2.51235 16.6895 2.50906 14.0666L2.50001 7.12759C2.49671 4.71297 3.95961 3.15292 6.25514 2.94219L6.25432 2.3175C6.2535 1.95102 6.52501 1.67532 6.88703 1.67532C7.24905 1.67449 7.52057 1.94935 7.52139 2.31584L7.52221 2.89888L12.4095 2.89221L12.4087 2.30917C12.4078 1.94269 12.6794 1.66783 13.0414 1.66699C13.3952 1.66616 13.6749 1.94102 13.6757 2.30751ZM3.76645 7.38486L16.2232 7.3682V7.07668C16.1879 5.28591 15.2894 4.34638 13.6768 4.20645L13.6776 4.8478C13.6776 5.20595 13.3987 5.48998 13.0449 5.48998C12.6828 5.49081 12.4105 5.20762 12.4105 4.84946L12.4097 4.1748L7.52241 4.18147L7.52323 4.85529C7.52323 5.21428 7.25254 5.49747 6.89052 5.49747C6.5285 5.49831 6.25616 5.21595 6.25616 4.85696L6.25534 4.21562C4.65093 4.37637 3.76316 5.31923 3.76562 7.12582L3.76645 7.38486ZM12.6973 11.1704V11.1795C12.7055 11.5627 13.0181 11.8533 13.3974 11.845C13.7677 11.8359 14.0631 11.5185 14.0548 11.1354C14.0376 10.7689 13.7405 10.4699 13.3711 10.4707C12.9926 10.479 12.6964 10.7872 12.6973 11.1704ZM13.38 14.9109C13.0015 14.9026 12.6963 14.5869 12.6955 14.2038C12.6872 13.8206 12.9908 13.5033 13.3693 13.4941H13.3775C13.7643 13.4941 14.0777 13.8098 14.0777 14.2013C14.0786 14.5928 13.7659 14.9101 13.38 14.9109ZM9.30859 11.1839C9.32504 11.5671 9.63852 11.8661 10.017 11.8494C10.3872 11.8319 10.6826 11.5154 10.6662 11.1323C10.6571 10.7575 10.3527 10.466 9.98244 10.4668C9.60396 10.4835 9.30777 10.8008 9.30859 11.1839ZM10.0209 14.8729C9.64243 14.8895 9.32977 14.5905 9.31249 14.2074C9.31249 13.8242 9.60787 13.5077 9.98634 13.4902C10.3566 13.4894 10.6618 13.7809 10.6701 14.1549C10.6873 14.5389 10.3911 14.8554 10.0209 14.8729ZM5.91796 11.2132C5.93442 11.5964 6.2479 11.8962 6.62637 11.8787C6.99662 11.8621 7.292 11.5447 7.27472 11.1616C7.26649 10.7868 6.96206 10.4953 6.59099 10.4961C6.21252 10.5128 5.91714 10.8301 5.91796 11.2132ZM6.63223 14.8768C6.25376 14.8943 5.9411 14.5944 5.92382 14.2113C5.923 13.8281 6.2192 13.5108 6.59767 13.4941C6.96792 13.4933 7.27317 13.7848 7.2814 14.1596C7.29868 14.5428 7.0033 14.8601 6.63223 14.8768Z" fill="#0060E1"/>
</svg>
