<svg width="26" height="22" viewBox="0 0 26 22" fill="none" xmlns="http://www.w3.org/2000/svg">
<path fill-rule="evenodd" clip-rule="evenodd" d="M19.5518 3.88368C19.6025 3.96759 19.6911 4.02752 19.8051 4.02752C22.8442 4.02752 25.3262 6.37691 25.3262 9.25372V16.3738C25.3262 19.2506 22.8442 21.6 19.8051 21.6H5.52111C2.4693 21.6 0 19.2506 0 16.3738V9.25372C0 6.37691 2.4693 4.02752 5.52111 4.02752C5.62242 4.02752 5.72372 3.97958 5.76171 3.88368L5.83769 3.73984C5.88134 3.65279 5.92613 3.56337 5.97161 3.4726C6.29557 2.82597 6.65398 2.11057 6.87606 1.69012C7.45857 0.611321 8.44629 0.0119867 9.67461 0H15.6389C16.8673 0.0119867 17.8676 0.611321 18.4501 1.69012C18.6496 2.06771 18.9535 2.67594 19.2463 3.26217C19.3068 3.38311 19.3667 3.50312 19.4252 3.61998L19.5518 3.88368ZM18.627 8.48727C18.627 9.08661 19.1335 9.56607 19.7666 9.56607C20.3998 9.56607 20.919 9.08661 20.919 8.48727C20.919 7.88794 20.3998 7.39648 19.7666 7.39648C19.1335 7.39648 18.627 7.88794 18.627 8.48727ZM10.4708 10.3445C11.0659 9.78111 11.8384 9.48145 12.6615 9.48145C13.4846 9.48145 14.257 9.78111 14.8395 10.3325C15.422 10.8839 15.7386 11.6151 15.7386 12.3942C15.726 14.0004 14.3583 15.307 12.6615 15.307C11.8384 15.307 11.0659 15.0073 10.4834 14.4559C9.90093 13.9045 9.58435 13.1733 9.58435 12.3942V12.3822C9.57169 11.6271 9.88826 10.8959 10.4708 10.3445ZM16.1702 15.7267C15.2711 16.5777 14.0301 17.1051 12.6625 17.1051C11.3329 17.1051 10.0919 16.6137 9.14215 15.7267C8.20508 14.8277 7.68589 13.653 7.68589 12.3944C7.67322 11.1477 8.19241 9.97305 9.12948 9.07405C10.0792 8.17505 11.3329 7.68359 12.6625 7.68359C13.9921 7.68359 15.2458 8.17505 16.1828 9.06206C17.1199 9.96106 17.6391 11.1477 17.6391 12.3944C17.6264 13.7009 17.0692 14.8756 16.1702 15.7267Z" fill="white"/>
</svg>
