<svg width="44" height="44" viewBox="0 0 44 44" fill="none" xmlns="http://www.w3.org/2000/svg">
<rect width="44" height="44" rx="6" fill="white"/>
<g clip-path="url(#clip0_5308_14510)">
<path d="M40 26.3883L32.0599 17.09C31.6789 16.6445 31.122 16.375 30.5357 16.375H13.4643C12.878 16.375 12.3211 16.6445 11.9401 17.09L4 26.3883V31.4922H40V26.3883Z" fill="#DFE7FF"/>
<path d="M37.75 31.5443L30.8007 23.4457C30.4679 23.0565 29.9673 22.8438 29.4552 22.8438H14.5447C14.0327 22.8438 13.532 23.0565 13.1992 23.4457L6.25 31.5443V35.9922H37.75V31.5443Z" fill="#B7C9FE"/>
<path d="M29.5234 28.1206V28.1244C29.5234 29.0892 28.7369 29.875 27.7722 29.875H16.2278C15.2631 29.875 14.4766 29.0964 14.4766 28.1316V28.1189C14.4766 27.1542 13.6989 26.3594 12.7341 26.3594H4V37.2571C4 38.532 5.03345 39.5781 6.30836 39.5781H37.6916C38.9665 39.5781 40 38.532 40 37.2571V26.3594H31.2659C30.3011 26.3594 29.5234 27.1559 29.5234 28.1206Z" fill="#0060E1"/>
<path d="M36.9062 26.3594V26.3794C36.9062 31.9491 32.3925 36.4844 26.8228 36.4844H4V37.2571C4 38.532 5.03345 39.5781 6.30836 39.5781H37.6916C38.9665 39.5781 40 38.532 40 37.2571V26.3594H36.9062Z" fill="#0159D0"/>
<path d="M23.8281 19.6797V6.41235C23.8281 5.32005 22.9309 4.42188 21.8386 4.42188H21.8183C20.726 4.42188 19.8203 5.32005 19.8203 6.41235V19.6797H17.8476C17.0854 19.6797 16.6482 20.5499 17.1018 21.1624L21.1452 26.6233C21.517 27.1254 22.2687 27.1246 22.6388 26.6211L26.6517 21.1594C27.1022 20.5465 26.6646 19.6797 25.904 19.6797H23.8281Z" fill="#023B88"/>
</g>
<defs>
<clipPath id="clip0_5308_14510">
<rect width="36" height="36" fill="white" transform="translate(4 4)"/>
</clipPath>
</defs>
</svg>
