<svg width="44" height="44" viewBox="0 0 44 44" fill="none" xmlns="http://www.w3.org/2000/svg">
<rect width="44" height="44" rx="6" fill="white"/>
<g clip-path="url(#clip0_5308_14511)">
<path fill-rule="evenodd" clip-rule="evenodd" d="M7.05799 32.5343C6.78383 32.5765 6.50966 32.471 6.36204 32.239L4.08436 28.4851C3.91564 28.1898 4 27.7891 4.31634 27.5993L6.76274 26.123C6.91037 26.0176 7.07908 25.9965 7.2478 26.0387C7.41652 26.0809 7.56414 26.1863 7.6485 26.3339L9.92618 30.0668C10.0105 30.2144 10.0316 30.4042 9.98945 30.5729C9.94727 30.7417 9.84182 30.8682 9.6942 30.9737L7.2478 32.4499C7.18453 32.4921 7.12126 32.5132 7.05799 32.5343Z" fill="#0060E1"/>
<path fill-rule="evenodd" clip-rule="evenodd" d="M5.45518 26.9034L6.76274 26.123C6.91037 26.0176 7.07909 25.9965 7.2478 26.0387C7.41652 26.0809 7.56415 26.1863 7.64851 26.3339L9.92619 30.0668C10.0105 30.2144 10.0316 30.4042 9.98946 30.5729C9.94728 30.7417 9.84183 30.8682 9.6942 30.9737L8.40773 31.754L5.45518 26.9034Z" fill="#023B88"/>
<path fill-rule="evenodd" clip-rule="evenodd" d="M35.2759 26.0387C35.2548 26.0387 35.2337 26.0387 35.2126 26.0387L16.1476 28.1476C15.8945 28.1687 15.6415 28.0422 15.5149 27.8313L12.2249 22.4112C12.0984 22.1793 12.0984 21.9051 12.246 21.6942L22.8963 5.77153C23.0228 5.58172 23.2337 5.47627 23.4657 5.47627C23.6766 5.47627 23.8875 5.60281 23.993 5.79262L35.6344 24.9631C35.6977 25.0475 35.761 25.1529 35.7821 25.2583C35.8453 25.6169 35.6344 25.9543 35.2759 26.0176V26.0387Z" fill="#5293EB"/>
<path fill-rule="evenodd" clip-rule="evenodd" d="M18.0879 27.9367L16.1476 28.1476C15.8945 28.1687 15.6415 28.0422 15.5149 27.8313L12.2249 22.4113C12.0984 22.1793 12.0984 21.9051 12.246 21.6942L13.3216 20.0914C13.3638 20.1547 13.4271 20.2179 13.4692 20.2812L17.9613 27.7048C18.0035 27.768 18.0457 27.8524 18.0879 27.9367Z" fill="#023B88"/>
<path fill-rule="evenodd" clip-rule="evenodd" d="M16.8225 38.8612C16.5694 38.9033 16.2742 38.7979 16.1476 38.5448L11.8242 31.4376C11.6344 31.1213 11.7399 30.7417 12.0351 30.5518L14.4394 29.0756C14.587 28.9912 14.7768 28.9701 14.9244 29.0123C15.0931 29.0545 15.2408 29.1599 15.3251 29.3076L19.6485 36.4148C19.7539 36.5624 19.775 36.7522 19.7329 36.8998C19.6907 37.0685 19.5852 37.2162 19.4376 37.3005L17.0334 38.7768C16.9701 38.819 16.8858 38.8401 16.8225 38.8612Z" fill="black"/>
<path fill-rule="evenodd" clip-rule="evenodd" d="M12.6046 32.7241L11.8242 31.4376C11.6344 31.1213 11.7399 30.7417 12.0351 30.5518L14.4394 29.0756C14.587 28.9912 14.7768 28.9701 14.9244 29.0123C15.0931 29.0545 15.2408 29.1599 15.3251 29.3076L16.1265 30.594L12.6046 32.7241Z" fill="black"/>
<path fill-rule="evenodd" clip-rule="evenodd" d="M10.6011 32.8928C10.5167 32.9139 10.4112 32.8928 10.3269 32.8717C10.1582 32.8295 10.0105 32.7241 9.92619 32.5764L5.43409 25.174C5.32865 25.0263 5.30756 24.8365 5.34974 24.6678C5.39192 24.5202 5.49736 24.3726 5.64499 24.2671L11.8453 20.5132C12.1406 20.3234 12.5413 20.4288 12.7311 20.7452L17.2232 28.1476C17.413 28.464 17.3076 28.8647 17.0123 29.0545L10.812 32.8084C10.7487 32.8506 10.6854 32.8717 10.6011 32.8928Z" fill="#0159D0"/>
<path fill-rule="evenodd" clip-rule="evenodd" d="M34.58 24.8155C34.5589 24.8365 34.5378 24.8365 34.5167 24.8365L30.7416 26.355L20.8506 9.20913L23.297 5.53953C23.4235 5.34973 23.6344 5.24428 23.8453 5.24428C24.0773 5.24428 24.2671 5.37082 24.3937 5.56062L34.9385 23.761C35.0018 23.8453 35.065 23.9508 35.0861 24.0562C35.1494 24.4148 34.9385 24.7522 34.58 24.8155Z" fill="#023B88"/>
<path fill-rule="evenodd" clip-rule="evenodd" d="M34.6854 27.1353C33.4833 27.8313 31.9438 27.4306 31.2267 26.2074L21.2724 8.97715C20.5764 7.75395 20.9982 6.21441 22.2003 5.51845C23.4235 4.8014 24.9631 5.2232 25.659 6.44639L35.6134 23.6766C36.3304 24.8787 35.9086 26.4394 34.6854 27.1353Z" fill="#0159D0"/>
</g>
<defs>
<clipPath id="clip0_5308_14511">
<rect width="36" height="36" fill="white" transform="translate(4 4)"/>
</clipPath>
</defs>
</svg>
