<svg width="70" height="70" viewBox="0 0 70 70" fill="none" xmlns="http://www.w3.org/2000/svg">
<path fill-rule="evenodd" clip-rule="evenodd" d="M43.3399 47.168C43.0665 47.168 42.793 47.0312 42.5196 46.7578H22.5587C22.422 46.8945 22.1485 47.0312 22.0118 47.0312C17.3634 47.4414 14.3556 45.9375 12.7149 44.4336C10.9376 42.9297 10.254 41.1523 10.254 41.1523C10.1173 40.8789 10.1173 40.4687 10.3907 40.1953C10.5274 39.9219 10.9376 39.7851 11.211 39.7851C13.2618 40.1953 14.7657 39.7851 15.4493 38.8281C17.2266 36.5039 15.1759 31.0352 14.2188 28.9844L14.0821 28.8477C11.6212 19.5508 12.1681 12.5781 15.8595 7.92968C19.961 2.87109 26.5235 2.59765 28.1641 2.59765C29.1212 1.77734 32.6759 -0.546881 37.0509 0.136713C41.0157 0.683588 44.5704 3.41796 47.5782 8.0664C47.7149 8.20312 49.3555 11.3476 50.586 15.9961C52.2266 22.0117 52.0899 27.7539 50.1759 32.4023V32.5391C49.2188 34.8633 48.2618 38.6914 49.3555 39.7851C50.0391 40.332 51.543 40.1953 53.5938 39.2383C54.004 39.1016 54.4141 39.2383 54.6876 39.5117C54.961 39.9219 54.961 40.332 54.8243 40.7422C54.6876 40.8789 50.8595 46.8945 43.3399 47.168Z" fill="#454045"/>
<path fill-rule="evenodd" clip-rule="evenodd" d="M52.2266 70H10.1172C8.61331 70 7.51956 70 6.83597 69.4531C5.87894 68.7695 5.6055 67.6758 5.6055 66.0352C5.46878 63.5742 5.33206 58.6523 5.6055 57.0117C6.97269 50.9961 10.6641 49.9023 14.3555 48.8086C18.5938 47.7148 22.6953 46.4844 24.336 37.8711C24.4727 37.3242 25.0196 36.9141 25.4297 37.0508C25.9766 37.1875 26.25 37.4609 26.25 37.8711C29.5313 37.7344 39.2383 37.5976 39.375 37.5976C39.9219 37.4609 40.4688 37.8711 40.6055 38.2812C41.1524 40.8789 41.836 42.5195 42.6563 43.75C44.1602 46.2109 46.211 47.3047 47.8516 47.8516C48.2617 48.125 48.5352 48.6719 48.2617 49.2187C48.2617 49.4922 51.4063 63.9844 52.0899 68.0859H52.2266C52.7735 68.0859 53.1836 68.4961 53.1836 69.043C53.1836 69.5898 52.7735 70 52.2266 70Z" fill="#0060E1"/>
<path fill-rule="evenodd" clip-rule="evenodd" d="M16.1328 70H14.2188V59.3359C14.2188 58.7891 14.6289 58.3789 15.1758 58.3789C15.7227 58.3789 16.1328 58.7891 16.1328 59.3359V70Z" fill="#023B88"/>
<path fill-rule="evenodd" clip-rule="evenodd" d="M22.5586 43.3398C23.2422 41.9726 23.9258 40.1953 24.3359 37.8711C24.4727 37.3242 25.0195 36.9141 25.4297 37.0508C25.9766 37.1875 26.25 37.4609 26.25 37.8711C29.5312 37.7344 39.2383 37.5976 39.375 37.5976C39.9219 37.4609 40.4688 37.8711 40.6055 38.2812C41.1523 40.6055 41.6992 42.2461 42.3828 43.3398L33.2227 56.875C33.0859 57.1484 32.8125 57.2851 32.5391 57.2851C32.2656 57.2851 31.9922 57.1484 31.8555 56.875L22.5586 43.3398Z" fill="#EC9B8D"/>
<path fill-rule="evenodd" clip-rule="evenodd" d="M22.0117 44.2969C22.2852 43.75 22.6953 43.0664 22.9688 42.3828L32.5391 56.3281L41.9727 42.5195C42.1094 42.9297 42.3828 43.3398 42.6562 43.75C42.793 44.0234 42.9297 44.1602 43.0664 44.2969L33.3594 58.6523C33.2227 58.9258 32.8125 59.0625 32.5391 59.0625C32.2656 59.0625 31.9922 58.9258 31.7188 58.6523L22.0117 44.2969Z" fill="#023B88"/>
<path fill-rule="evenodd" clip-rule="evenodd" d="M32.6758 42.5195C29.5312 42.5195 26.7968 41.1523 24.7461 38.6914C20.9179 34.043 19.9609 25.9766 21.0547 20.6445C21.1914 20.2344 21.3281 19.9609 21.7383 19.9609C22.0117 19.8242 22.2851 19.8242 22.5586 19.9609C22.832 20.2344 29.9414 25.0195 37.0508 16.543C37.7344 15.7227 38.1445 14.9023 38.5547 14.3555C39.2383 13.2617 39.7851 12.4414 40.7422 12.5781C41.6992 12.7148 42.2461 13.8086 43.0664 16.543C45.2539 23.1055 45.2539 32.6758 41.289 38.1445C39.1015 41.0156 36.2304 42.5195 32.6758 42.5195Z" fill="#EAAC9D"/>
<path fill-rule="evenodd" clip-rule="evenodd" d="M52.7734 70C49.6289 70 46.6211 68.7695 44.4336 66.582C42.2461 64.3945 41.0156 61.3867 41.0156 58.2422C41.0156 51.6797 46.3477 46.3477 52.7734 46.3477C59.1992 46.3477 64.5312 51.6797 64.5312 58.2422C64.5312 61.3867 63.3008 64.3945 61.1133 66.582C58.9258 68.7695 55.918 70 52.7734 70Z" fill="#71C97B"/>
<path fill-rule="evenodd" clip-rule="evenodd" d="M49.4922 63.8477C49.2188 63.8477 48.9453 63.7109 48.8086 63.5742L46.0742 60.8398C45.6641 60.4297 45.6641 59.8828 46.0742 59.4727C46.4844 59.0625 47.0312 59.0625 47.4414 59.4727L49.4922 61.5234L58.1055 52.9102C58.5156 52.5 59.0625 52.5 59.4727 52.9102C59.8828 53.3203 59.8828 53.8672 59.4727 54.2773L50.1758 63.5742C50.0391 63.7109 49.7656 63.8477 49.4922 63.8477Z" fill="white"/>
</svg>
