<svg width="70" height="70" viewBox="0 0 70 70" fill="none" xmlns="http://www.w3.org/2000/svg">
<path fill-rule="evenodd" clip-rule="evenodd" d="M14.2188 70H9.57031C7.79297 70 6.42578 68.6328 6.42578 66.8555V3.14453C6.42578 1.36719 7.79297 0 9.57031 0H14.2188C14.7656 0 15.1758 0.410156 15.1758 0.957031V69.043C15.1758 69.5898 14.7656 70 14.2188 70Z" fill="#0060E1"/>
<path fill-rule="evenodd" clip-rule="evenodd" d="M60.4297 70H14.3555C12.5781 70 11.2109 68.6328 11.2109 66.8555V3.14453C11.2109 1.36719 12.5781 0 14.3555 0H50.9961C51.543 0 51.9531 0.410156 51.9531 0.957031V9.84375H62.6172C63.1641 9.84375 63.5742 10.2539 63.5742 10.8008V66.8555C63.5742 68.6328 62.207 70 60.4297 70Z" fill="#7ABCFA"/>
<path fill-rule="evenodd" clip-rule="evenodd" d="M62.6172 11.7578H50.9961C50.4492 11.7578 50.0391 11.3477 50.0391 10.8008V0.957038C50.0391 0.546881 50.3125 0.273444 50.5859 0.136725C50.9961 6.32182e-06 51.2695 6.32182e-06 51.6797 0.273444L63.3008 10.1172C63.5742 10.3906 63.7109 10.8008 63.5742 11.0742C63.3008 11.4844 63.0273 11.7578 62.6172 11.7578Z" fill="#0060E1"/>
<path fill-rule="evenodd" clip-rule="evenodd" d="M17.0898 18.457C16.543 18.457 16.1328 18.0469 16.1328 17.5V9.43359C16.1328 8.88672 16.543 8.47656 17.0898 8.47656C17.6367 8.47656 18.0469 8.88672 18.0469 9.43359V17.5C18.0469 18.0469 17.6367 18.457 17.0898 18.457Z" fill="white"/>
<path fill-rule="evenodd" clip-rule="evenodd" d="M17.0898 24.6094C16.543 24.6094 16.1328 24.1992 16.1328 23.6523V21.1914C16.1328 20.6445 16.543 20.2344 17.0898 20.2344C17.6367 20.2344 18.0469 20.6445 18.0469 21.1914V23.6523C18.0469 24.1992 17.6367 24.6094 17.0898 24.6094Z" fill="white"/>
<path fill-rule="evenodd" clip-rule="evenodd" d="M57.9688 52.0898H15.9961C15.4492 52.0898 15.0391 51.6797 15.0391 51.1328C15.0391 50.5859 15.4492 50.1758 15.9961 50.1758H57.9688C58.5156 50.1758 58.9258 50.5859 58.9258 51.1328C58.9258 51.6797 58.5156 52.0898 57.9688 52.0898Z" fill="white"/>
<path fill-rule="evenodd" clip-rule="evenodd" d="M57.9688 56.6016H15.9961C15.4492 56.6016 15.0391 56.1914 15.0391 55.6445C15.0391 55.0977 15.4492 54.6875 15.9961 54.6875H57.9688C58.5156 54.6875 58.9258 55.0977 58.9258 55.6445C58.9258 56.1914 58.5156 56.6016 57.9688 56.6016Z" fill="white"/>
<path fill-rule="evenodd" clip-rule="evenodd" d="M50.5859 61.25H15.9961C15.4492 61.25 15.0391 60.8398 15.0391 60.293C15.0391 59.7461 15.4492 59.3359 15.9961 59.3359H50.5859C51.1328 59.3359 51.543 59.7461 51.543 60.293C51.543 60.8398 51.1328 61.25 50.5859 61.25Z" fill="white"/>
<path fill-rule="evenodd" clip-rule="evenodd" d="M44.9805 65.7617H15.9961C15.4492 65.7617 15.0391 65.3516 15.0391 64.8047C15.0391 64.2578 15.4492 63.8477 15.9961 63.8477H44.9805C45.5273 63.8477 45.9375 64.2578 45.9375 64.8047C45.9375 65.3516 45.5273 65.7617 44.9805 65.7617Z" fill="white"/>
<path fill-rule="evenodd" clip-rule="evenodd" d="M25.4297 32.5391C20.6445 32.5391 19.1406 29.5313 19.0039 29.3945C18.8672 29.1211 18.8672 28.8477 19.0039 28.5742C19.2773 28.3008 19.5508 28.1641 19.8242 28.3008C20.7812 28.3008 21.875 28.3008 22.2852 27.6172C23.1055 26.5234 21.875 23.9258 21.4648 23.1055C21.4648 23.1055 21.4648 23.1055 21.4648 22.9688C19.9609 18.5938 20.0977 15.0391 22.0117 12.5781C24.4727 9.4336 28.7109 9.16016 29.9414 9.16016C30.4883 8.88672 31.8555 8.06641 33.6328 7.92969C35.6836 7.79297 38.8281 8.33985 41.6992 12.0313C41.6992 12.168 41.6992 12.168 41.8359 12.168C41.9727 12.4414 45.9375 18.8672 43.3398 24.8828V25.0195C42.6562 26.1133 42.2461 27.7539 42.6562 28.1641C42.793 28.4375 43.6133 28.4375 44.9805 27.8906C45.3906 27.7539 45.6641 27.8906 45.9375 28.1641C46.2109 28.4375 46.2109 28.8477 45.9375 29.1211C45.9375 29.2578 43.75 32.4023 38.9648 32.5391C38.6914 32.5391 38.2812 32.4023 38.1445 31.9922H26.9336C26.9336 32.2656 26.6602 32.5391 26.25 32.5391C25.9766 32.5391 25.7031 32.5391 25.4297 32.5391Z" fill="#42434D"/>
<path fill-rule="evenodd" clip-rule="evenodd" d="M45.9375 44.2969H19.1406C17.3632 44.2969 16.4062 44.1602 16.2695 41.9727C16.2695 41.6992 16.2695 41.2891 16.2695 40.8789C16.1328 39.1016 16.1328 37.8711 16.4062 37.1875C17.2265 33.9062 19.5507 33.3594 21.7382 32.8125C24.1992 32.2656 26.5234 31.7188 27.4804 27.4805C27.6171 27.0703 28.0273 26.7969 28.4375 26.7969C28.7109 26.9336 28.8476 26.9336 28.8476 27.0703H36.5039C36.914 26.9336 37.4609 27.207 37.4609 27.6172C37.8711 28.8477 38.2812 29.668 38.8281 30.3516C39.9218 31.8555 41.5625 32.2656 43.3398 32.8125C45.5273 33.3594 47.9882 33.9062 48.8086 37.1875C49.082 38.2812 48.8086 41.5625 48.8086 41.9727C48.8086 44.2969 47.4414 44.2969 45.9375 44.2969Z" fill="#0060E1"/>
<path fill-rule="evenodd" clip-rule="evenodd" d="M35.8203 44.2969H29.1211L24.3359 38.418C24.0625 38.1445 24.0625 37.7344 24.1992 37.4609L25.0195 35.6836L24.0625 32.1289C25.1562 31.7188 26.1133 30.8984 26.9336 29.3945H38.1445C38.418 29.668 38.5547 30.0781 38.8281 30.3516C39.375 31.1719 40.0586 31.582 40.8789 31.9922L40.1953 35.6836L41.0156 37.4609C41.1523 37.7344 41.1523 38.1445 40.8789 38.2812L35.8203 44.2969Z" fill="#023B88" fill-opacity="0.37"/>
<path fill-rule="evenodd" clip-rule="evenodd" d="M33.2227 44.2969H31.582L26.1133 30.625C26.6602 29.9414 27.207 28.9844 27.4805 27.4805C27.6172 27.0703 28.0273 26.7969 28.4375 26.7969C28.7109 26.9336 28.8477 26.9336 28.8477 27.0703H36.5039C36.9141 26.9336 37.4609 27.207 37.4609 27.6172C37.8711 28.8477 38.2812 29.668 38.8281 30.3516C38.9648 30.4883 39.1016 30.625 39.1016 30.7617L33.2227 44.2969Z" fill="#EC9B8D"/>
<path fill-rule="evenodd" clip-rule="evenodd" d="M32.6758 30.2149C30.4883 30.2149 28.5742 29.3945 27.3438 27.6172C25.1563 25.0195 24.8828 21.0547 25.5664 18.5938C25.5664 18.3203 25.7031 18.1836 25.9766 18.0469C26.25 17.9102 26.5235 17.9102 26.7969 18.0469C26.9336 18.1836 31.0352 20.6445 35.1367 16.4063C35.5469 15.9961 35.8203 15.5859 36.0938 15.3125C36.3672 14.7656 36.7774 14.2188 37.461 14.3555C38.2813 14.3555 38.5547 15.1758 39.1016 16.543C40.1953 19.5508 40.4688 24.1992 38.2813 27.3438C37.0508 29.2578 35 30.2149 32.6758 30.2149Z" fill="#EAAC9D"/>
<path fill-rule="evenodd" clip-rule="evenodd" d="M33.2227 44.2969H31.582L26.1133 30.625C26.5234 30.2148 26.7969 29.668 27.0703 28.8477L32.5391 41.4258L38.0078 29.1211C38.2812 29.668 38.5547 29.9414 38.8281 30.3516C38.9648 30.4883 39.1016 30.625 39.1016 30.7617L33.2227 44.2969Z" fill="#023B88"/>
</svg>
