<svg width="70" height="70" viewBox="0 0 70 70" fill="none" xmlns="http://www.w3.org/2000/svg">
<path d="M54.6875 8.75V6.5625H15.3125V8.75C15.3125 17.4944 20.3429 25.2793 28.171 30.2842C31.6107 32.4834 31.6107 37.5166 28.171 39.7158C20.3429 44.7207 15.3125 52.5056 15.3125 61.25V63.4375H54.6875V61.25C54.6875 52.5056 49.6571 44.7207 41.829 39.7158C38.3893 37.5166 38.3893 32.4834 41.829 30.2842C49.6571 25.2793 54.6875 17.4944 54.6875 8.75Z" fill="#BBDEFB"/>
<path d="M37.0617 44.2969C37.0582 45.6041 37.3854 46.8909 38.0129 48.0377C38.6404 49.1845 39.5478 50.1539 40.6506 50.8557C45.0149 53.646 48.2977 57.2309 50.2893 61.25L50.3126 62.3438H19.6875L19.7109 61.25C21.7022 57.2305 24.9851 53.646 29.3496 50.8557C30.4524 50.1539 31.3597 49.1845 31.9872 48.0377C32.6147 46.8909 32.9418 45.6041 32.9383 44.2969V34.4531C32.9418 33.1459 32.6146 31.859 31.9871 30.7123C31.3596 29.5655 30.4521 28.5961 29.3493 27.8943C24.9851 25.104 21.7022 21.5191 19.7106 17.5H50.2891C48.2977 21.5195 45.0149 25.104 40.6504 27.8943C39.5476 28.5962 38.6403 29.5656 38.0128 30.7123C37.3854 31.8591 37.0582 33.1459 37.0617 34.4531V44.2969Z" fill="#369FFF"/>
<path d="M56.875 66.7188H13.125V63.5742C13.125 62.9578 13.3699 62.3666 13.8057 61.9307C14.2416 61.4949 14.8328 61.25 15.4492 61.25H54.6875C55.2677 61.25 55.8241 61.4805 56.2343 61.8907C56.6445 62.3009 56.875 62.8573 56.875 63.4375V66.7188Z" fill="#0060E1"/>
<path d="M56.875 3.28125H13.125V6.42578C13.125 7.0422 13.3699 7.63338 13.8057 8.06925C14.2416 8.50513 14.8328 8.75 15.4492 8.75H54.6875C55.2677 8.75 55.8241 8.51953 56.2343 8.1093C56.6445 7.69906 56.875 7.14266 56.875 6.5625V3.28125Z" fill="#0060E1"/>
</svg>
