<svg width="24" height="24" viewBox="0 0 24 24" fill="none" xmlns="http://www.w3.org/2000/svg">
<path d="M19.2337 9.4682C19.2337 9.4682 18.6933 16.2032 18.3798 19.0402C18.2305 20.3952 17.3974 21.1892 16.0329 21.2142C13.4362 21.2612 10.8365 21.2642 8.24079 21.2092C6.92801 21.1822 6.10889 20.3782 5.96258 19.0472C5.64707 16.1852 5.10962 9.4682 5.10962 9.4682" stroke="#FF1C1C" stroke-width="1.5" stroke-linecap="round" stroke-linejoin="round"/>
<path d="M20.6105 6.23972H3.73242" stroke="#FF1C1C" stroke-width="1.5" stroke-linecap="round" stroke-linejoin="round"/>
<path d="M17.3582 6.2397C16.5769 6.2397 15.9041 5.6847 15.7509 4.9157L15.509 3.6997C15.3597 3.1387 14.8541 2.7507 14.2778 2.7507H10.0648C9.48851 2.7507 8.98291 3.1387 8.83362 3.6997L8.59176 4.9157C8.43849 5.6847 7.76567 6.2397 6.98438 6.2397" stroke="#FF1C1C" stroke-width="1.5" stroke-linecap="round" stroke-linejoin="round"/>
</svg>
