<svg width="33" height="32" viewBox="0 0 33 32" fill="none" xmlns="http://www.w3.org/2000/svg">
<circle cx="16.5" cy="16" r="16" fill="#023B88"/>
<mask id="mask0_4066_16696" style="mask-type:alpha" maskUnits="userSpaceOnUse" x="4" y="4" width="25" height="25">
<rect x="4.75977" y="4.02539" width="24" height="24" fill="#D9D9D9"/>
</mask>
<g mask="url(#mask0_4066_16696)">
<path d="M16.7598 19.6004C16.6264 19.6004 16.5014 19.5796 16.3848 19.5379C16.2681 19.4962 16.1598 19.4254 16.0598 19.3254L12.4598 15.7254C12.2598 15.5254 12.1639 15.2921 12.1723 15.0254C12.1806 14.7587 12.2764 14.5254 12.4598 14.3254C12.6598 14.1254 12.8973 14.0212 13.1723 14.0129C13.4473 14.0046 13.6848 14.1004 13.8848 14.3004L15.7598 16.1754V9.02539C15.7598 8.74206 15.8556 8.50456 16.0473 8.31289C16.2389 8.12122 16.4764 8.02539 16.7598 8.02539C17.0431 8.02539 17.2806 8.12122 17.4723 8.31289C17.6639 8.50456 17.7598 8.74206 17.7598 9.02539V16.1754L19.6348 14.3004C19.8348 14.1004 20.0723 14.0046 20.3473 14.0129C20.6223 14.0212 20.8598 14.1254 21.0598 14.3254C21.2431 14.5254 21.3389 14.7587 21.3473 15.0254C21.3556 15.2921 21.2598 15.5254 21.0598 15.7254L17.4598 19.3254C17.3598 19.4254 17.2514 19.4962 17.1348 19.5379C17.0181 19.5796 16.8931 19.6004 16.7598 19.6004ZM10.7598 24.0254C10.2098 24.0254 9.73893 23.8296 9.34727 23.4379C8.9556 23.0462 8.75977 22.5754 8.75977 22.0254V20.0254C8.75977 19.7421 8.8556 19.5046 9.04727 19.3129C9.23893 19.1212 9.47643 19.0254 9.75977 19.0254C10.0431 19.0254 10.2806 19.1212 10.4723 19.3129C10.6639 19.5046 10.7598 19.7421 10.7598 20.0254V22.0254H22.7598V20.0254C22.7598 19.7421 22.8556 19.5046 23.0473 19.3129C23.2389 19.1212 23.4764 19.0254 23.7598 19.0254C24.0431 19.0254 24.2806 19.1212 24.4723 19.3129C24.6639 19.5046 24.7598 19.7421 24.7598 20.0254V22.0254C24.7598 22.5754 24.5639 23.0462 24.1723 23.4379C23.7806 23.8296 23.3098 24.0254 22.7598 24.0254H10.7598Z" fill="white"/>
</g>
</svg>
