<svg width="25" height="25" viewBox="0 0 25 25" fill="none" xmlns="http://www.w3.org/2000/svg">
<g id="download_2">
<mask id="mask0_4682_16168" style="mask-type:alpha" maskUnits="userSpaceOnUse" x="0" y="0" width="25" height="25">
<rect id="Bounding box" x="0.882812" y="0.61084" width="24" height="24" fill="#D9D9D9"/>
</mask>
<g mask="url(#mask0_4682_16168)">
<path id="download_2_2" d="M5.88281 20.6108H19.8828C20.1661 20.6108 20.4036 20.7067 20.5953 20.8983C20.787 21.09 20.8828 21.3275 20.8828 21.6108C20.8828 21.8942 20.787 22.1317 20.5953 22.3233C20.4036 22.515 20.1661 22.6108 19.8828 22.6108H5.88281C5.59948 22.6108 5.36198 22.515 5.17031 22.3233C4.97865 22.1317 4.88281 21.8942 4.88281 21.6108C4.88281 21.3275 4.97865 21.09 5.17031 20.8983C5.36198 20.7067 5.59948 20.6108 5.88281 20.6108ZM12.8828 17.9858C12.7328 17.9858 12.587 17.9525 12.4453 17.8858C12.3036 17.8192 12.1828 17.7192 12.0828 17.5858L7.13281 11.2358C6.88281 10.9025 6.84948 10.5483 7.03281 10.1733C7.21615 9.79834 7.51615 9.61084 7.93281 9.61084H9.88281V3.61084C9.88281 3.32751 9.97865 3.09001 10.1703 2.89834C10.362 2.70667 10.5995 2.61084 10.8828 2.61084H14.8828C15.1661 2.61084 15.4036 2.70667 15.5953 2.89834C15.787 3.09001 15.8828 3.32751 15.8828 3.61084V9.61084H17.8328C18.2495 9.61084 18.5495 9.79834 18.7328 10.1733C18.9161 10.5483 18.8828 10.9025 18.6328 11.2358L13.6828 17.5858C13.5828 17.7192 13.462 17.8192 13.3203 17.8858C13.1786 17.9525 13.0328 17.9858 12.8828 17.9858Z" fill="white"/>
</g>
</g>
</svg>
