<svg width="24" height="24" viewBox="0 0 24 24" fill="none" xmlns="http://www.w3.org/2000/svg">
<path d="M20.25 13.5H17.019C16.5472 13.5061 16.0889 13.6591 15.7081 13.9378C15.3273 14.2164 15.0428 14.6069 14.8942 15.0547C14.7196 15.6111 14.3943 16.1083 13.9544 16.4911C13.5145 16.874 12.9772 17.1275 12.402 17.2238C11.6989 17.3209 10.9843 17.1648 10.3858 16.7833C9.78723 16.4019 9.34389 15.82 9.135 15.1417C8.99903 14.6735 8.71638 14.2614 8.32862 13.9658C7.94087 13.6703 7.46849 13.507 6.981 13.5H3.75C3.35218 13.5 2.97064 13.658 2.68934 13.9393C2.40804 14.2206 2.25 14.6022 2.25 15V21C2.25 21.3978 2.40804 21.7794 2.68934 22.0607C2.97064 22.342 3.35218 22.5 3.75 22.5H20.25C20.6478 22.5 21.0294 22.342 21.3107 22.0607C21.592 21.7794 21.75 21.3978 21.75 21V15C21.75 14.6022 21.592 14.2206 21.3107 13.9393C21.0294 13.658 20.6478 13.5 20.25 13.5Z" fill="#EA3333"/>
<path d="M11.4683 12.5303C11.609 12.6709 11.7997 12.7498 11.9986 12.7498C12.1975 12.7498 12.3882 12.6709 12.5288 12.5303L15.5288 9.53025C15.6655 9.3888 15.7411 9.19935 15.7394 9.0027C15.7376 8.80605 15.6588 8.61794 15.5197 8.47889C15.3807 8.33983 15.1925 8.26095 14.9959 8.25924C14.7992 8.25754 14.6098 8.33313 14.4683 8.46975L12.7486 10.1895V2.25C12.7486 2.05109 12.6696 1.86032 12.5289 1.71967C12.3883 1.57902 12.1975 1.5 11.9986 1.5C11.7997 1.5 11.6089 1.57902 11.4683 1.71967C11.3276 1.86032 11.2486 2.05109 11.2486 2.25V10.1895L9.52885 8.46975C9.38739 8.33313 9.19794 8.25754 9.0013 8.25924C8.80465 8.26095 8.61654 8.33983 8.47748 8.47889C8.33843 8.61794 8.25955 8.80605 8.25784 9.0027C8.25613 9.19935 8.33173 9.3888 8.46835 9.53025L11.4683 12.5303Z" fill="#EA3333"/>
</svg>
