<svg width="24" height="24" viewBox="0 0 24 24" fill="none" xmlns="http://www.w3.org/2000/svg">
<g clip-path="url(#clip0_4066_19383)">
<path d="M22.1511 15.0759C21.8209 15.0759 21.5533 15.3434 21.5533 15.6736V20.9807C21.5522 21.9707 20.7501 22.773 19.7602 22.7739H2.98862C1.99864 22.773 1.19662 21.9707 1.19545 20.9807V5.40464C1.19662 4.41489 1.99864 3.61263 2.98862 3.61146H8.29576C8.62591 3.61146 8.89348 3.34389 8.89348 3.01374C8.89348 2.68382 8.62591 2.41602 8.29576 2.41602H2.98862C1.33881 2.41788 0.00186789 3.75482 0 5.40464V20.981C0.00186789 22.6308 1.33881 23.9677 2.98862 23.9696H19.7602C21.41 23.9677 22.7469 22.6308 22.7488 20.981V15.6736C22.7488 15.3434 22.4812 15.0759 22.1511 15.0759Z" fill="#023B88"/>
<path d="M22.514 0.879637C21.4636 -0.170817 19.7605 -0.170817 18.7101 0.879637L8.04628 11.5434C7.9732 11.6165 7.92043 11.7071 7.89288 11.8066L6.49056 16.8692C6.43289 17.0768 6.4915 17.2991 6.64373 17.4515C6.79619 17.6038 7.01847 17.6624 7.22604 17.6049L12.2887 16.2024C12.3882 16.1748 12.4788 16.1221 12.5519 16.049L23.2154 5.38498C24.2642 4.33383 24.2642 2.63218 23.2154 1.58103L22.514 0.879637ZM9.34866 11.9319L18.0761 3.20422L20.8908 6.0189L12.1631 14.7466L9.34866 11.9319ZM8.78643 13.0601L11.0351 15.3091L7.92463 16.1709L8.78643 13.0601ZM22.3702 4.53976L21.7363 5.17368L18.9214 2.35877L19.5555 1.72486C20.139 1.14138 21.0851 1.14138 21.6686 1.72486L22.3702 2.42625C22.9527 3.01043 22.9527 3.95582 22.3702 4.53976Z" fill="#023B88"/>
</g>
<defs>
<clipPath id="clip0_4066_19383">
<rect width="24" height="24" fill="white"/>
</clipPath>
</defs>
</svg>
