<svg width="16" height="17" viewBox="0 0 16 17" fill="none" xmlns="http://www.w3.org/2000/svg">
<g clip-path="url(#clip0_4066_19320)">
<path d="M14.7674 10.5508C14.5473 10.5508 14.3689 10.7292 14.3689 10.9493V14.4874C14.3681 15.1474 13.8334 15.6822 13.1734 15.6829H1.99241C1.33243 15.6822 0.797744 15.1474 0.796966 14.4874V4.10335C0.797744 3.44352 1.33243 2.90868 1.99241 2.9079H5.53051C5.75061 2.9079 5.92899 2.72952 5.92899 2.50942C5.92899 2.28948 5.75061 2.11094 5.53051 2.11094H1.99241C0.892539 2.11218 0.00124526 3.00348 0 4.10335V14.4876C0.00124526 15.5874 0.892539 16.4787 1.99241 16.48H13.1734C14.2733 16.4787 15.1646 15.5874 15.1659 14.4876V10.9493C15.1659 10.7292 14.9875 10.5508 14.7674 10.5508Z" fill="white"/>
<path d="M15.0093 1.08616C14.309 0.385862 13.1737 0.385862 12.4734 1.08616L5.36419 8.19535C5.31547 8.24407 5.28029 8.30446 5.26192 8.37077L4.32704 11.7459C4.28859 11.8843 4.32766 12.0325 4.42915 12.1341C4.5308 12.2356 4.67898 12.2747 4.81736 12.2364L8.19248 11.3013C8.25879 11.283 8.31919 11.2478 8.36791 11.1991L15.4769 4.08973C16.1761 3.38896 16.1761 2.25453 15.4769 1.55376L15.0093 1.08616ZM6.23244 8.45436L12.0508 2.63589L13.9272 4.51234L8.10874 10.3308L6.23244 8.45436ZM5.85762 9.2065L7.35676 10.7058L5.28309 11.2803L5.85762 9.2065ZM14.9135 3.52625L14.4908 3.94886L12.6142 2.07225L13.037 1.64964C13.426 1.26066 14.0567 1.26066 14.4457 1.64964L14.9135 2.11724C15.3018 2.50669 15.3018 3.13695 14.9135 3.52625Z" fill="white"/>
</g>
<defs>
<clipPath id="clip0_4066_19320">
<rect width="16" height="16" fill="white" transform="translate(0 0.5)"/>
</clipPath>
</defs>
</svg>
