<svg width="24" height="24" viewBox="0 0 24 24" fill="none" xmlns="http://www.w3.org/2000/svg">
<mask id="mask0_4066_20195" style="mask-type:alpha" maskUnits="userSpaceOnUse" x="0" y="0" width="24" height="24">
<rect width="24" height="24" fill="#D9D9D9"/>
</mask>
<g mask="url(#mask0_4066_20195)">
<path d="M2 24V21.0001H22V24H2ZM4.50003 17.9134V14.5385L15.7097 3.34427C15.8545 3.19941 16.0189 3.0898 16.2029 3.01545C16.3869 2.94108 16.577 2.9039 16.7731 2.9039C16.9757 2.9039 17.1699 2.94108 17.3558 3.01545C17.5417 3.0898 17.7122 3.20454 17.8673 3.35968L19.0692 4.57697C19.2243 4.72184 19.3365 4.88722 19.4057 5.0731C19.475 5.259 19.5096 5.45323 19.5096 5.65578C19.5096 5.84168 19.475 6.02661 19.4057 6.21057C19.3365 6.39454 19.2243 6.56409 19.0692 6.71922L7.87497 17.9134H4.50003ZM16.5904 7.05963L18.0096 5.6404L16.7731 4.40388L15.3539 5.8231L16.5904 7.05963Z" fill="#023B88"/>
</g>
</svg>
