<svg width="24" height="25" viewBox="0 0 24 25" fill="none" xmlns="http://www.w3.org/2000/svg">
<g clip-path="url(#clip0_4773_25192)">
<path d="M19.5 24.5H4.5C2.0145 24.5 0 22.4855 0 20V5C0 2.5145 2.0145 0.5 4.5 0.5H19.5C21.9855 0.5 24 2.5145 24 5V20C24 22.4855 21.9855 24.5 19.5 24.5Z" fill="white"/>
<path d="M14.4998 18.5002H7.5C6.67275 18.5002 6 17.8275 6 17.0002V10.0005C6 9.17324 6.67275 8.50049 7.5 8.50049H11.4998C11.7758 8.50049 12 8.72474 12 9.00074C12 9.27674 11.7765 9.50024 11.4998 9.50024H7.5C7.224 9.50024 6.99975 9.72449 6.99975 10.0005V17.0002C6.99975 17.2762 7.224 17.5005 7.5 17.5005H14.4998C14.7758 17.5005 15 17.2762 15 17.0002V12.9997C15 12.7237 15.2235 12.5002 15.5002 12.5002C15.7762 12.5002 16.0005 12.7245 16.0005 13.0005V17.0002C15.9998 17.8275 15.327 18.5002 14.4998 18.5002Z" fill="#023B88"/>
<path d="M14.6444 8.08838L10.6881 12.0446C10.6529 12.0799 10.6296 12.1241 10.6199 12.1721L10.2666 13.9399C10.2501 14.0216 10.2756 14.1064 10.3349 14.1656C10.3821 14.2129 10.4459 14.2391 10.5119 14.2391C10.5276 14.2391 10.5449 14.2376 10.5606 14.2339L12.3284 13.8806C12.3771 13.8709 12.4214 13.8469 12.4566 13.8124L16.4129 9.85613L14.6444 8.08838Z" fill="#023B88"/>
<path d="M17.6358 6.86611C17.1483 6.37861 16.3555 6.37861 15.868 6.86611L15.1758 7.55836L16.9435 9.32611L17.6358 8.63386C17.872 8.39836 18.0018 8.08411 18.0018 7.75036C18.0018 7.41661 17.872 7.10236 17.6358 6.86611Z" fill="#023B88"/>
</g>
<defs>
<clipPath id="clip0_4773_25192">
<rect width="24" height="24" fill="white" transform="translate(0 0.5)"/>
</clipPath>
</defs>
</svg>
