<svg width="24" height="24" viewBox="0 0 24 24" fill="none" xmlns="http://www.w3.org/2000/svg">
<path fill-rule="evenodd" clip-rule="evenodd" d="M6.01096 2.25064C5.04097 2.25064 4.21206 2.88423 3.8968 3.753H20.1426C19.8269 2.88423 18.9969 2.25064 18.0269 2.25064H6.01096ZM3.00624 5.25683C1.77076 5.25683 0.748291 6.27784 0.748291 7.51331V19.5293C0.748291 20.7647 1.77076 21.7872 3.00624 21.7872H21.0331C22.2686 21.7872 23.2837 20.7647 23.2837 19.5293V7.51331C23.2837 6.27784 22.2686 5.25683 21.0331 5.25683H3.00624ZM12.0321 8.25129C12.2261 8.25476 12.4111 8.3331 12.5486 8.46989L15.5548 11.4761C15.6334 11.5434 15.6973 11.6263 15.7423 11.7195C15.7874 11.8127 15.8127 11.9142 15.8167 12.0177C15.8207 12.1211 15.8033 12.2243 15.7655 12.3207C15.7277 12.4171 15.6705 12.5046 15.5973 12.5778C15.524 12.6511 15.4365 12.7083 15.3401 12.7461C15.2437 12.7839 15.1405 12.8013 15.0371 12.7973C14.9336 12.7933 14.8321 12.768 14.7389 12.7229C14.6457 12.6779 14.5628 12.614 14.4955 12.5354L12.7701 10.8144V18.0137C12.7781 18.4396 12.4316 18.7861 12.0057 18.7781C11.5907 18.7696 11.26 18.4287 11.2678 18.0137V10.81L9.54386 12.5354C9.46571 12.6166 9.37027 12.6793 9.26462 12.7187C9.15896 12.758 9.0458 12.7731 8.93352 12.7628C8.79101 12.7486 8.65552 12.694 8.543 12.6054C8.43049 12.5168 8.34564 12.3979 8.29846 12.2627C8.25128 12.1275 8.24373 11.9816 8.27671 11.8422C8.30968 11.7029 8.3818 11.5758 8.48458 11.4761L11.4893 8.46989C11.5606 8.39899 11.6453 8.34311 11.7386 8.30556C11.8318 8.26801 11.9316 8.24955 12.0321 8.25129Z" fill="#023B88"/>
</svg>
