<svg width="24" height="24" viewBox="0 0 24 24" fill="none" xmlns="http://www.w3.org/2000/svg">
<g clip-path="url(#clip0_6302_14754)">
<path d="M9.55078 22.935C9.55078 23.5223 10.0286 24 10.6158 24H15.3292C15.9164 24 16.3942 23.5222 16.3942 22.935V21.6076H9.55078V22.935Z" fill="white"/>
<path d="M18.6285 17.7297C18.9112 17.369 19.0668 16.9188 19.0668 16.4602V14.7959C19.0668 13.8871 18.4574 13.0747 17.585 12.8204L13.6312 11.6681V7.04765C13.6312 6.11186 12.8699 5.35047 11.934 5.35047C10.9982 5.35047 10.2369 6.11186 10.2369 7.04765V14.4638L9.01928 13.0028C8.5016 12.3817 7.58059 12.2631 6.92239 12.7326C6.33147 13.1543 6.11155 13.9177 6.38763 14.589C6.39073 14.5966 6.39411 14.6041 6.39777 14.6115L9.16628 20.1999H16.943L18.6285 17.7297Z" fill="white"/>
<path d="M11.9321 2.52448C9.46454 2.52448 7.45703 4.53194 7.45703 6.99946C7.45703 7.38815 7.77215 7.70327 8.16084 7.70327C8.54954 7.70327 8.86466 7.38815 8.86466 6.99946C8.86466 5.30811 10.2407 3.93211 11.9321 3.93211C13.6234 3.93211 14.9994 5.30811 14.9994 6.99946C14.9994 7.38815 15.3145 7.70327 15.7032 7.70327C16.0919 7.70327 16.407 7.38815 16.407 6.99946C16.407 4.53194 14.3996 2.52448 11.9321 2.52448Z" fill="white"/>
<path d="M11.933 1.40762C15.0164 1.40762 17.5248 3.91611 17.5248 6.99946C17.5248 7.38815 17.84 7.70327 18.2287 7.70327C18.6173 7.70327 18.9325 7.38815 18.9325 6.99946C18.9325 3.13994 15.7925 0 11.933 0C8.07353 0 4.93359 3.13994 4.93359 6.99946C4.93359 7.38815 5.24871 7.70327 5.63741 7.70327C6.0261 7.70327 6.34122 7.38815 6.34122 6.99946C6.34122 3.91611 8.8497 1.40762 11.933 1.40762Z" fill="white"/>
</g>
<defs>
<clipPath id="clip0_6302_14754">
<rect width="24" height="24" fill="white"/>
</clipPath>
</defs>
</svg>
