<svg width="20" height="20" viewBox="0 0 20 20" fill="none" xmlns="http://www.w3.org/2000/svg">
<path d="M20 13.1818V17.7273C20 19 19 20 17.7273 20H13.1818C11.9091 20 10.9091 19 10.9091 17.7273V13.1818C10.9091 11.9091 11.9091 10.9091 13.1818 10.9091H17.7273C19 10.9091 20 11.9091 20 13.1818ZM6.81818 10.9091H2.27273C1 10.9091 0 11.9091 0 13.1818V17.7273C0 19 1 20 2.27273 20H6.81818C8.09091 20 9.09091 19 9.09091 17.7273V13.1818C9.09091 11.9091 8.09091 10.9091 6.81818 10.9091ZM17.7273 0H13.1818C11.9091 0 10.9091 1 10.9091 2.27273V6.81818C10.9091 8.09091 11.9091 9.09091 13.1818 9.09091H17.7273C19 9.09091 20 8.09091 20 6.81818V2.27273C20 1 19 0 17.7273 0ZM6.81818 0H2.27273C1 0 0 1 0 2.27273V6.81818C0 8.09091 1 9.09091 2.27273 9.09091H6.81818C8.09091 9.09091 9.09091 8.09091 9.09091 6.81818V2.27273C9.09091 1 8.09091 0 6.81818 0Z" fill="#ACAFB5"/>
</svg>
