<svg width="24" height="24" viewBox="0 0 24 24" fill="none" xmlns="http://www.w3.org/2000/svg">
<g clip-path="url(#clip0_5305_15097)">
<path d="M11.5 12.244C14.5376 12.244 17 9.78158 17 6.74402C17 3.70645 14.5376 1.24402 11.5 1.24402C8.46243 1.24402 6 3.70645 6 6.74402C6 9.78158 8.46243 12.244 11.5 12.244Z" fill="#ACAFB5"/>
<path fill-rule="evenodd" clip-rule="evenodd" d="M17.5 13.938C15.534 13.938 13.938 15.534 13.938 17.5C13.938 19.466 15.534 21.063 17.5 21.063C19.466 21.063 21.063 19.466 21.063 17.5C21.063 15.534 19.466 13.938 17.5 13.938ZM17.5 15.438C18.638 15.438 19.563 16.362 19.563 17.5C19.563 18.638 18.638 19.563 17.5 19.563C16.362 19.563 15.437 18.638 15.437 17.5C15.437 16.362 16.362 15.438 17.5 15.438Z" fill="#ACAFB5"/>
<path fill-rule="evenodd" clip-rule="evenodd" d="M18.25 14.687V13C18.25 12.586 17.914 12.25 17.5 12.25C17.086 12.25 16.75 12.586 16.75 13V14.688C16.75 15.101 17.086 15.438 17.5 15.438C17.914 15.437 18.25 15.101 18.25 14.687Z" fill="#ACAFB5"/>
<path fill-rule="evenodd" clip-rule="evenodd" d="M20.019 16.042L21.212 14.848C21.505 14.556 21.505 14.08 21.212 13.788C20.92 13.495 20.444 13.495 20.152 13.788L18.958 14.981C18.666 15.274 18.666 15.749 18.958 16.042C19.251 16.334 19.726 16.334 20.019 16.042Z" fill="#ACAFB5"/>
<path fill-rule="evenodd" clip-rule="evenodd" d="M20.312 18.25H22C22.414 18.25 22.75 17.914 22.75 17.5C22.75 17.086 22.414 16.75 22 16.75H20.312C19.899 16.75 19.563 17.086 19.563 17.5C19.562 17.914 19.899 18.25 20.312 18.25Z" fill="#ACAFB5"/>
<path fill-rule="evenodd" clip-rule="evenodd" d="M18.958 20.019L20.152 21.212C20.444 21.505 20.92 21.505 21.212 21.212C21.505 20.92 21.505 20.444 21.212 20.152L20.019 18.958C19.726 18.666 19.251 18.666 18.958 18.958C18.666 19.251 18.666 19.726 18.958 20.019Z" fill="#ACAFB5"/>
<path fill-rule="evenodd" clip-rule="evenodd" d="M16.75 20.312V22C16.75 22.414 17.086 22.75 17.5 22.75C17.914 22.75 18.25 22.414 18.25 22V20.312C18.25 19.899 17.914 19.564 17.5 19.563C17.086 19.563 16.75 19.899 16.75 20.312Z" fill="#ACAFB5"/>
<path fill-rule="evenodd" clip-rule="evenodd" d="M14.981 18.958L13.788 20.152C13.495 20.444 13.495 20.92 13.788 21.212C14.08 21.505 14.556 21.505 14.848 21.212L16.042 20.019C16.334 19.726 16.334 19.251 16.042 18.958C15.749 18.666 15.274 18.666 14.981 18.958Z" fill="#ACAFB5"/>
<path fill-rule="evenodd" clip-rule="evenodd" d="M14.687 16.75H13C12.586 16.75 12.25 17.086 12.25 17.5C12.25 17.914 12.586 18.25 13 18.25H14.687C15.101 18.25 15.438 17.914 15.437 17.5C15.437 17.086 15.101 16.75 14.687 16.75Z" fill="#ACAFB5"/>
<path fill-rule="evenodd" clip-rule="evenodd" d="M16.042 14.981L14.848 13.788C14.556 13.495 14.08 13.495 13.788 13.788C13.495 14.08 13.495 14.556 13.788 14.848L14.981 16.042C15.274 16.334 15.749 16.334 16.042 16.042C16.334 15.749 16.334 15.274 16.042 14.981Z" fill="#ACAFB5"/>
<path fill-rule="evenodd" clip-rule="evenodd" d="M12.936 21.756C12.402 21.07 12.45 20.075 13.081 19.445L13.275 19.25H13C12.034 19.25 11.25 18.466 11.25 17.5C11.25 16.534 12.034 15.75 13 15.75H13.275L13.081 15.555C12.425 14.9 12.399 13.851 13.003 13.164C12.513 13.126 12.011 13.106 11.5 13.106C8.178 13.106 5.237 13.937 3.411 15.182C2.018 16.132 1.25 17.339 1.25 18.606V20.056C1.25 20.507 1.429 20.94 1.748 21.258C2.067 21.577 2.499 21.756 2.95 21.756H12.936Z" fill="#ACAFB5"/>
</g>
<defs>
<clipPath id="clip0_5305_15097">
<rect width="24" height="24" fill="white"/>
</clipPath>
</defs>
</svg>
