<svg width="24" height="24" viewBox="0 0 24 24" fill="none" xmlns="http://www.w3.org/2000/svg">
<g clip-path="url(#clip0_5305_15103)">
<path d="M2.4975 4.485V17.9175C2.50014 18.9073 2.89449 19.8558 3.59437 20.5556C4.29425 21.2555 5.24273 21.6499 6.2325 21.6525H11.2875C11.3595 21.1332 11.5086 20.6277 11.73 20.1525C12.3357 18.8167 13.431 17.7643 14.79 17.2125C14.3003 16.8736 13.9003 16.4208 13.6246 15.8929C13.3489 15.365 13.2058 14.778 13.2075 14.1825C13.2085 13.1982 13.5999 12.2545 14.2959 11.5584C14.992 10.8624 15.9357 10.471 16.92 10.47C17.2784 10.4686 17.635 10.5217 17.9775 10.6275C18.5397 10.7938 19.054 11.0921 19.4775 11.4975V4.485C19.4774 3.49444 19.0839 2.54448 18.3834 1.84405C17.683 1.14363 16.7331 0.750089 15.7425 0.75H6.2325C5.24233 0.751363 4.29311 1.14531 3.59296 1.84546C2.89281 2.54561 2.49886 3.49483 2.4975 4.485ZM7.0275 4.47H14.9475C15.1464 4.47 15.3372 4.54902 15.4778 4.68967C15.6185 4.83032 15.6975 5.02109 15.6975 5.22C15.6975 5.41891 15.6185 5.60968 15.4778 5.75033C15.3372 5.89098 15.1464 5.97 14.9475 5.97H7.0275C6.82859 5.97 6.63782 5.89098 6.49717 5.75033C6.35652 5.60968 6.2775 5.41891 6.2775 5.22C6.2775 5.02109 6.35652 4.83032 6.49717 4.68967C6.63782 4.54902 6.82859 4.47 7.0275 4.47ZM7.0275 8.46H14.9475C15.1464 8.46 15.3372 8.53902 15.4778 8.67967C15.6185 8.82032 15.6975 9.01109 15.6975 9.21C15.6975 9.40891 15.6185 9.59968 15.4778 9.74033C15.3372 9.88098 15.1464 9.96 14.9475 9.96H7.0275C6.82859 9.96 6.63782 9.88098 6.49717 9.74033C6.35652 9.59968 6.2775 9.40891 6.2775 9.21C6.2775 9.01109 6.35652 8.82032 6.49717 8.67967C6.63782 8.53902 6.82859 8.46 7.0275 8.46ZM7.0275 12.4425H10.6275C10.8264 12.4425 11.0172 12.5215 11.1578 12.6622C11.2985 12.8028 11.3775 12.9936 11.3775 13.1925C11.3775 13.3914 11.2985 13.5822 11.1578 13.7228C11.0172 13.8635 10.8264 13.9425 10.6275 13.9425H7.0275C6.82859 13.9425 6.63782 13.8635 6.49717 13.7228C6.35652 13.5822 6.2775 13.3914 6.2775 13.1925C6.2775 12.9936 6.35652 12.8028 6.49717 12.6622C6.63782 12.5215 6.82859 12.4425 7.0275 12.4425Z" fill="#ACAFB5"/>
<path d="M16.92 16.77C18.349 16.77 19.5075 15.6115 19.5075 14.1825C19.5075 12.7534 18.349 11.595 16.92 11.595C15.491 11.595 14.3325 12.7534 14.3325 14.1825C14.3325 15.6115 15.491 16.77 16.92 16.77Z" fill="#ACAFB5"/>
<path d="M13.095 23.25H20.7525C20.9512 23.2494 21.1417 23.1702 21.2822 23.0297C21.4227 22.8892 21.5019 22.6987 21.5025 22.5C21.5025 21.2857 21.0201 20.121 20.1614 19.2623C19.3027 18.4037 18.1381 17.9213 16.9238 17.9213C15.7094 17.9213 14.5448 18.4037 13.6861 19.2623C12.8274 20.121 12.345 21.2857 12.345 22.5C12.3456 22.6987 12.4248 22.8892 12.5653 23.0297C12.7058 23.1702 12.8963 23.2494 13.095 23.25Z" fill="#ACAFB5"/>
</g>
<defs>
<clipPath id="clip0_5305_15103">
<rect width="24" height="24" fill="white"/>
</clipPath>
</defs>
</svg>
