<svg width="24" height="24" viewBox="0 0 24 24" fill="none" xmlns="http://www.w3.org/2000/svg">
<path d="M6.3675 13.5096C7.47546 13.9618 8.63378 14.2791 9.8175 14.4546C9.79854 14.5123 9.76819 14.5656 9.72825 14.6113C9.68832 14.6571 9.6396 14.6943 9.585 14.7209L10.1288 15.2609L12.0075 17.1246C12.4258 16.7201 14.0858 15.1127 14.4675 14.7396C14.4013 14.7181 14.3411 14.6809 14.2922 14.6314C14.2433 14.5818 14.2069 14.5212 14.1863 14.4546C15.3676 14.2793 16.5235 13.962 17.6288 13.5096C17.6981 13.4817 17.7574 13.4334 17.7989 13.3712C17.8404 13.309 17.8621 13.2357 17.8613 13.1609V8.67213C17.4799 8.61825 17.1028 8.53806 16.7325 8.43213V9.72963C16.803 12.9829 13.4988 15.5489 10.4549 14.3908C9.50774 14.0376 8.69296 13.4 8.12232 12.5655C7.55168 11.731 7.2531 10.7405 7.2675 9.72965V8.58588C6.8996 8.56501 6.43073 8.5074 6.135 8.46213V13.1609C6.13543 13.2354 6.15768 13.3081 6.199 13.3701C6.24032 13.4321 6.2989 13.4806 6.3675 13.5096Z" fill="#ACAFB5"/>
<path d="M8.68467 5.41364C8.70059 5.46156 8.72595 5.50581 8.75926 5.54377C8.79256 5.58173 8.83313 5.61263 8.87858 5.63465C8.92402 5.65667 8.97341 5.66936 9.02384 5.67198C9.07427 5.6746 9.12472 5.66709 9.17219 5.64989C10.9401 4.96334 12.9008 4.96201 14.6697 5.64614C14.7174 5.66428 14.7683 5.67264 14.8192 5.67071C14.8702 5.66878 14.9203 5.65661 14.9665 5.63491C15.0127 5.61321 15.0541 5.58244 15.0881 5.54443C15.1222 5.50641 15.1482 5.46193 15.1647 5.41364C15.1647 5.41364 16.1724 2.59377 15.7834 2.13239C15.6654 1.9764 15.5121 1.85056 15.3362 1.76518C15.1602 1.6798 14.9665 1.63729 14.7709 1.64114H9.07842C8.33684 1.61904 7.66786 2.31233 7.91592 3.03614L8.68467 5.41364ZM11.9247 2.24864C12.024 2.24911 12.1191 2.28878 12.1893 2.359C12.2595 2.42922 12.2992 2.52433 12.2997 2.62364V2.92739H12.5997C12.6991 2.9276 12.7943 2.96718 12.8646 3.03746C12.9349 3.10774 12.9745 3.203 12.9747 3.30239C12.9753 3.38899 12.9456 3.47309 12.8909 3.54018C12.8361 3.60727 12.7596 3.65314 12.6747 3.66989C12.6292 3.68543 12.3524 3.67393 12.2997 3.67739V3.97739C12.2997 4.07685 12.2602 4.17223 12.1898 4.24255C12.1195 4.31288 12.0241 4.35239 11.9247 4.35239C11.8252 4.35239 11.7298 4.31288 11.6595 4.24255C11.5892 4.17223 11.5497 4.07685 11.5497 3.97739V3.67739C11.496 3.67338 11.219 3.6848 11.1709 3.66989C11.0799 3.6513 10.9989 3.59957 10.9439 3.52471C10.8888 3.44985 10.8634 3.35721 10.8728 3.26474C10.8821 3.17227 10.9255 3.08656 10.9944 3.02423C11.0633 2.9619 11.153 2.92739 11.2459 2.92739H11.5497V2.62364C11.5502 2.52433 11.5898 2.42923 11.66 2.35901C11.7303 2.28879 11.8254 2.24912 11.9247 2.24864Z" fill="#ACAFB5"/>
<path d="M13.4696 6.92834C11.9029 8.28962 9.93387 8.61987 8.01712 8.61209V9.72959C8.00399 10.5644 8.2423 11.3838 8.70109 12.0813C9.15987 12.7789 9.8179 13.3223 10.5896 13.6408C13.1818 14.7161 16.036 12.5423 15.9821 9.72956L15.9821 8.29711C15.9821 8.25211 13.7246 7.09334 13.4696 6.92834Z" fill="#ACAFB5"/>
<path d="M7.37669 7.83211C9.30701 7.93847 11.6479 7.68723 13.1629 6.18586C13.2262 6.12373 13.3091 6.0856 13.3974 6.07807C13.4857 6.07054 13.5739 6.09407 13.6467 6.14461C14.0354 6.5159 16.7517 7.85053 17.8617 7.9145C17.94 7.21279 17.8436 6.50261 17.5813 5.8471C17.3189 5.19159 16.8987 4.61106 16.3579 4.1571L15.8779 5.6421C15.8302 5.78784 15.7533 5.92233 15.6519 6.03736C15.5505 6.15239 15.4267 6.24556 15.2881 6.31117C15.1495 6.37679 14.999 6.41349 14.8457 6.41902C14.6924 6.42455 14.5397 6.39881 14.3967 6.34335C12.8425 5.74251 11.1225 5.72919 9.5592 6.30588C9.40169 6.38067 9.22961 6.41979 9.05524 6.42044C8.88087 6.42109 8.70851 6.38325 8.55045 6.30963C8.06186 6.11272 7.5192 4.25463 7.5192 4.25463C7.03768 4.68288 6.6621 5.21701 6.42199 5.815C6.18189 6.413 6.08381 7.05856 6.13548 7.70088C6.44596 7.7474 6.97809 7.8096 7.37669 7.83211Z" fill="#ACAFB5"/>
<path d="M11.79 17.9646C11.2061 17.3876 9.1817 15.37 8.625 14.8259C7.41822 15.009 6.31701 15.6184 5.52102 16.5438C4.72503 17.4691 4.28696 18.649 4.28625 19.8696V21.9846C4.28654 22.084 4.32615 22.1792 4.39641 22.2495C4.46667 22.3197 4.56188 22.3593 4.66125 22.3596H12.7837C12.7834 21.8758 12.784 20.301 12.7837 19.7909C12.8105 19.0381 12.3223 18.4387 11.79 17.9646ZM9.585 18.8196C9.5847 18.919 9.5451 19.0142 9.47483 19.0845C9.40457 19.1547 9.30936 19.1943 9.21 19.1946H7.095C6.99554 19.1946 6.90016 19.1551 6.82983 19.0848C6.75951 19.0145 6.72 18.9191 6.72 18.8196C6.72 18.7202 6.75951 18.6248 6.82983 18.5545C6.90016 18.4841 6.99554 18.4446 7.095 18.4446H9.21C9.30936 18.4449 9.40458 18.4845 9.47484 18.5548C9.5451 18.625 9.5847 18.7203 9.585 18.8196Z" fill="#ACAFB5"/>
<path d="M18.2175 16.2621C17.4625 15.4981 16.4816 14.9971 15.42 14.8334C15.405 14.8671 12.54 17.6534 12.54 17.6534C12.8485 17.9182 13.0967 18.2459 13.2681 18.6146C13.4395 18.9833 13.5301 19.3843 13.5338 19.7909C13.5343 20.3047 13.5334 21.8677 13.5338 22.3596H19.3388C19.4381 22.3593 19.5333 22.3197 19.6036 22.2495C19.6739 22.1792 19.7135 22.084 19.7138 21.9846V19.8696C19.7158 19.1992 19.5846 18.535 19.3277 17.9157C19.0709 17.2964 18.6935 16.7343 18.2175 16.2621Z" fill="#ACAFB5"/>
</svg>
