<svg width="24" height="24" viewBox="0 0 24 24" fill="none" xmlns="http://www.w3.org/2000/svg">
<g clip-path="url(#clip0_5305_15071)">
<g clip-path="url(#clip1_5305_15071)">
<path d="M5.23434 10.1575C3.85603 10.1575 2.59894 9.62898 1.65473 8.76413C0.636937 9.71963 0 11.0764 0 12.5793V13.2825H10.4687V12.5793C10.4687 11.0764 9.83184 9.71963 8.814 8.76409C7.8698 9.62893 6.6127 10.1575 5.23434 10.1575Z" fill="#ACAFB5"/>
<path d="M5.23434 8.75119C7.38745 8.75119 9.13289 7.00576 9.13289 4.85265C9.13289 2.69954 7.38745 0.954102 5.23434 0.954102C3.08124 0.954102 1.3358 2.69954 1.3358 4.85265C1.3358 7.00576 3.08124 8.75119 5.23434 8.75119Z" fill="#ACAFB5"/>
<path d="M21.1923 16.7889C20.0749 17.7024 18.6483 18.2513 17.0958 18.2513C15.5433 18.2513 14.1168 17.7024 12.9994 16.7889C11.2974 18.0476 10.1917 20.0684 10.1917 22.3429V23.046H24V22.3429C24 20.0684 22.8942 18.0475 21.1923 16.7889Z" fill="#ACAFB5"/>
<path d="M20.6816 15.3583C22.6636 13.3762 22.6636 10.1627 20.6816 8.18068C18.6995 6.19864 15.486 6.19864 13.504 8.18068C11.5219 10.1627 11.5219 13.3762 13.504 15.3583C15.486 17.3403 18.6995 17.3403 20.6816 15.3583Z" fill="#ACAFB5"/>
<path d="M5.68556 17.8823L6.58036 18.7771H1.40625V14.7322H0V20.1834H6.58036L5.68556 21.0782L6.67992 22.0726L9.27225 19.4802L6.67992 16.8879L5.68556 17.8823Z" fill="#ACAFB5"/>
</g>
</g>
<defs>
<clipPath id="clip0_5305_15071">
<rect width="24" height="24" fill="white"/>
</clipPath>
<clipPath id="clip1_5305_15071">
<rect width="24" height="24" fill="white"/>
</clipPath>
</defs>
</svg>
