<svg width="24" height="24" viewBox="0 0 24 24" fill="none" xmlns="http://www.w3.org/2000/svg">
<g clip-path="url(#clip0_5305_15077)">
<g clip-path="url(#clip1_5305_15077)">
<path d="M16.5952 1.48227H2.71406C1.21734 1.48227 0 2.69961 0 4.19633V16.3604C0 16.9365 0.651516 17.2612 1.11141 16.9327L4.97719 14.1746C5.30156 13.9435 5.68313 13.8212 6.08156 13.8212H14.5842C16.0809 13.8212 17.2983 12.6038 17.2983 11.1071V2.18539C17.2983 1.79727 16.9833 1.48227 16.5952 1.48227ZM13.1798 9.99993H5.05594C4.66781 9.99993 4.35281 9.68539 4.35281 9.2968C4.35281 8.90868 4.66781 8.59368 5.05594 8.59368H13.1798C13.568 8.59368 13.883 8.90868 13.883 9.2968C13.883 9.68539 13.568 9.99993 13.1798 9.99993ZM13.1798 6.71868H5.05594C4.66781 6.71868 4.35281 6.40414 4.35281 6.01555C4.35281 5.62743 4.66781 5.31243 5.05594 5.31243H13.1798C13.568 5.31243 13.883 5.62743 13.883 6.01555C13.883 6.40414 13.568 6.71868 13.1798 6.71868Z" fill="#ACAFB5"/>
<path d="M24 9.65023V21.8138C24 22.386 23.3518 22.717 22.8886 22.3862L19.0228 19.6285C18.6984 19.3974 18.3169 19.2751 17.9184 19.2751H9.41578C7.91906 19.2751 6.70172 18.0573 6.70172 16.5605V15.2274H14.5842C16.8562 15.2274 18.7045 13.3791 18.7045 11.1071V6.9357H21.2859C22.7827 6.9357 24 8.15351 24 9.65023Z" fill="#ACAFB5"/>
</g>
</g>
<defs>
<clipPath id="clip0_5305_15077">
<rect width="24" height="24" fill="white"/>
</clipPath>
<clipPath id="clip1_5305_15077">
<rect width="24" height="24" fill="white"/>
</clipPath>
</defs>
</svg>
