<svg width="24" height="24" viewBox="0 0 24 24" fill="none" xmlns="http://www.w3.org/2000/svg">
<path d="M14.75 6.95831C14.244 6.95831 13.8333 6.54765 13.8333 6.04165V4.66665H10.1667V6.04165C10.1667 6.54765 9.756 6.95831 9.25 6.95831C8.744 6.95831 8.33333 6.54765 8.33333 6.04165V4.66665C8.33333 3.65556 9.15558 2.83331 10.1667 2.83331H13.8333C14.8444 2.83331 15.6667 3.65556 15.6667 4.66665V6.04165C15.6667 6.54765 15.256 6.95831 14.75 6.95831Z" fill="#ACAFB5"/>
<path d="M12.6508 15.0983C12.4858 15.1625 12.2475 15.2083 12 15.2083C11.7525 15.2083 11.5142 15.1625 11.2942 15.08L1 11.6516V18.6458C1 20.0391 2.1275 21.1666 3.52083 21.1666H20.4792C21.8725 21.1666 23 20.0391 23 18.6458V11.6516L12.6508 15.0983Z" fill="#ACAFB5"/>
<path d="M23 8.10415V10.2033L12.22 13.7966C12.1467 13.8241 12.0733 13.8333 12 13.8333C11.9267 13.8333 11.8533 13.8241 11.78 13.7966L1 10.2033V8.10415C1 6.71081 2.1275 5.58331 3.52083 5.58331H20.4792C21.8725 5.58331 23 6.71081 23 8.10415Z" fill="#ACAFB5"/>
</svg>
