<svg width="24" height="24" viewBox="0 0 24 24" fill="none" xmlns="http://www.w3.org/2000/svg">
<path d="M12 13C15.3137 13 18 10.3137 18 7C18 3.68629 15.3137 1 12 1C8.68631 1 6.00002 3.68629 6.00002 7C6.00002 10.3137 8.68631 13 12 13Z" fill="#ACAFB5"/>
<path d="M20.5391 16.2549C19.5937 15.77 18.0879 15.0899 16.2871 14.604C16.0371 14.5337 15.7735 14.6729 15.6865 14.918L13.6371 20.6355L13.0166 17.5323L13.9746 14.6582C14.0254 14.5059 14 14.3379 13.9053 14.2075C13.8116 14.0771 13.6612 14 13.5 14H10.5C10.3389 14 10.1885 14.0771 10.0947 14.2075C10 14.3379 9.9746 14.5059 10.0254 14.6582L10.9834 17.5323L10.363 20.6355L8.31354 14.918C8.22663 14.6729 7.96197 14.5342 7.71293 14.604C5.91213 15.0899 4.40627 15.77 3.46099 16.2549C1.94336 17.0342 1 18.5723 1 20.2681V21C1 22.103 1.89747 23 3.00002 23H21C22.1026 23 23 22.1031 23 21V20.2681C23 18.5723 22.0566 17.0342 20.5391 16.2549Z" fill="#ACAFB5"/>
</svg>
