<svg width="24" height="24" viewBox="0 0 24 24" fill="none" xmlns="http://www.w3.org/2000/svg">
<g clip-path="url(#clip0_5305_15087)">
<path d="M7.41666 12.9167V21.1667C7.41666 21.4098 7.32009 21.643 7.14818 21.8149C6.97627 21.9868 6.74311 22.0834 6.5 22.0834H2.83333C2.59022 22.0834 2.35706 21.9868 2.18515 21.8149C2.01324 21.643 1.91666 21.4098 1.91666 21.1667V12.9167C1.91666 12.6736 2.01324 12.4404 2.18515 12.2685C2.35706 12.0966 2.59022 12 2.83333 12H6.5C6.74311 12 6.97627 12.0966 7.14818 12.2685C7.32009 12.4404 7.41666 12.6736 7.41666 12.9167ZM13.8333 1.91669H10.1667C9.92355 1.91669 9.69039 2.01326 9.51848 2.18517C9.34657 2.35708 9.25 2.59024 9.25 2.83335V21.1667C9.25 21.4098 9.34657 21.643 9.51848 21.8149C9.69039 21.9868 9.92355 22.0834 10.1667 22.0834H13.8333C14.0764 22.0834 14.3096 21.9868 14.4815 21.8149C14.6534 21.643 14.75 21.4098 14.75 21.1667V2.83335C14.75 2.59024 14.6534 2.35708 14.4815 2.18517C14.3096 2.01326 14.0764 1.91669 13.8333 1.91669ZM21.1667 6.50002H17.5C17.2569 6.50002 17.0237 6.5966 16.8518 6.76851C16.6799 6.94041 16.5833 7.17357 16.5833 7.41669V21.1667C16.5833 21.4098 16.6799 21.643 16.8518 21.8149C17.0237 21.9868 17.2569 22.0834 17.5 22.0834H21.1667C21.4098 22.0834 21.6429 21.9868 21.8148 21.8149C21.9868 21.643 22.0833 21.4098 22.0833 21.1667V7.41669C22.0833 7.17357 21.9868 6.94041 21.8148 6.76851C21.6429 6.5966 21.4098 6.50002 21.1667 6.50002Z" fill="#ACAFB5"/>
</g>
<defs>
<clipPath id="clip0_5305_15087">
<rect width="22" height="22" fill="white" transform="translate(1 1)"/>
</clipPath>
</defs>
</svg>
