<svg width="24" height="24" viewBox="0 0 24 24" fill="none" xmlns="http://www.w3.org/2000/svg">
<g clip-path="url(#clip0_5305_15093)">
<g clip-path="url(#clip1_5305_15093)">
<path d="M21 2.75C21 1.231 19.769 0 18.25 0H5.75C4.231 0 3 1.231 3 2.75V21.25C3 22.769 4.231 24 5.75 24H18.25C19.769 24 21 22.769 21 21.25V2.75ZM8.88 9.25H8.12C6.951 9.25 6 8.299 6 7.13C6 6.079 6.758 5.214 7.75 5.038V4.25C7.75 3.836 8.086 3.5 8.5 3.5C8.914 3.5 9.25 3.836 9.25 4.25V5H10.25C10.664 5 11 5.336 11 5.75C11 6.164 10.664 6.5 10.25 6.5H8.12C7.778 6.5 7.5 6.778 7.5 7.12C7.5 7.472 7.778 7.75 8.12 7.75H8.88C10.049 7.75 11 8.701 11 9.87C11 10.921 10.242 11.786 9.25 11.962V12.749C9.25 13.163 8.914 13.499 8.5 13.499C8.086 13.499 7.75 13.163 7.75 12.749V12H6.75C6.336 12 6 11.664 6 11.25C6 10.836 6.336 10.5 6.75 10.5H8.88C9.222 10.5 9.5 10.222 9.5 9.88C9.5 9.528 9.222 9.25 8.88 9.25ZM17.25 21H6.75C6.336 21 6 20.664 6 20.25C6 19.836 6.336 19.5 6.75 19.5H17.25C17.664 19.5 18 19.836 18 20.25C18 20.664 17.664 21 17.25 21ZM17.25 17H6.75C6.336 17 6 16.664 6 16.25C6 15.836 6.336 15.5 6.75 15.5H17.25C17.664 15.5 18 15.836 18 16.25C18 16.664 17.664 17 17.25 17ZM17.25 13H13.75C13.336 13 13 12.664 13 12.25C13 11.836 13.336 11.5 13.75 11.5H17.25C17.664 11.5 18 11.836 18 12.25C18 12.664 17.664 13 17.25 13ZM17.25 9H13.75C13.336 9 13 8.664 13 8.25C13 7.836 13.336 7.5 13.75 7.5H17.25C17.664 7.5 18 7.836 18 8.25C18 8.664 17.664 9 17.25 9Z" fill="#ACAFB5"/>
</g>
</g>
<defs>
<clipPath id="clip0_5305_15093">
<rect width="24" height="24" fill="white"/>
</clipPath>
<clipPath id="clip1_5305_15093">
<rect width="24" height="24" fill="white"/>
</clipPath>
</defs>
</svg>
