<svg width="24" height="24" viewBox="0 0 24 24" fill="none" xmlns="http://www.w3.org/2000/svg">
<mask id="mask0_6301_14750" style="mask-type:alpha" maskUnits="userSpaceOnUse" x="0" y="0" width="24" height="24">
<rect width="24" height="24" fill="#D9D9D9"/>
</mask>
<g mask="url(#mask0_6301_14750)">
<path d="M10 14C9.16667 14 8.45833 13.7083 7.875 13.125C7.29167 12.5417 7 11.8333 7 11C7 10.6333 7.05833 10.2875 7.175 9.9625C7.29167 9.6375 7.46667 9.34167 7.7 9.075C7.63333 8.90833 7.58333 8.73333 7.55 8.55C7.51667 8.36667 7.5 8.18333 7.5 8C7.5 7.36667 7.67083 6.80417 8.0125 6.3125C8.35417 5.82083 8.8 5.45833 9.35 5.225C9.68333 4.84167 10.075 4.54167 10.525 4.325C10.975 4.10833 11.4667 4 12 4C12.5333 4 13.025 4.10833 13.475 4.325C13.925 4.54167 14.3167 4.84167 14.65 5.225C15.2 5.45833 15.6458 5.82083 15.9875 6.3125C16.3292 6.80417 16.5 7.36667 16.5 8C16.5 8.18333 16.4833 8.36667 16.45 8.55C16.4167 8.73333 16.3667 8.90833 16.3 9.075C16.5333 9.34167 16.7083 9.6375 16.825 9.9625C16.9417 10.2875 17 10.6333 17 11C17 11.8333 16.7083 12.5417 16.125 13.125C15.5417 13.7083 14.8333 14 14 14H10ZM4 22V19.2C4 18.6333 4.14583 18.1125 4.4375 17.6375C4.72917 17.1625 5.11667 16.8 5.6 16.55C6.63333 16.0333 7.68333 15.6458 8.75 15.3875C9.81667 15.1292 10.9 15 12 15C13.1 15 14.1833 15.1292 15.25 15.3875C16.3167 15.6458 17.3667 16.0333 18.4 16.55C18.8833 16.8 19.2708 17.1625 19.5625 17.6375C19.8542 18.1125 20 18.6333 20 19.2V22H4Z" fill="#ACAFB5"/>
</g>
</svg>
