<svg width="24" height="24" viewBox="0 0 24 24" fill="none" xmlns="http://www.w3.org/2000/svg">
<g clip-path="url(#clip0_6303_14296)">
<path d="M11.2969 7.07812H12.7031V9.89062H11.2969V7.07812Z" fill="#023B88"/>
<path d="M16.2188 7.07812H14.1094V10.5938C14.1094 10.9819 13.7944 11.2969 13.4062 11.2969H10.5938C10.2056 11.2969 9.89062 10.9819 9.89062 10.5938V7.07812H7.78125C7.39313 7.07812 7.07812 7.39313 7.07812 7.78125V16.2188C7.07812 16.6069 7.39313 16.9219 7.78125 16.9219H16.2188C16.6069 16.9219 16.9219 16.6069 16.9219 16.2188V7.78125C16.9219 7.39313 16.6069 7.07812 16.2188 7.07812Z" fill="#023B88"/>
<path d="M23.2969 11.2969H21.1139C20.7712 6.81609 17.1839 3.22875 12.7031 2.88609V0.703125C12.7031 0.315 12.3881 0 12 0C11.6119 0 11.2969 0.315 11.2969 0.703125V2.88609C6.81609 3.22875 3.22875 6.81609 2.88609 11.2969H0.703125C0.315 11.2969 0 11.6119 0 12C0 12.3881 0.315 12.7031 0.703125 12.7031H2.88609C3.22875 17.1839 6.81609 20.7712 11.2969 21.1139V23.2969C11.2969 23.685 11.6119 24 12 24C12.3881 24 12.7031 23.685 12.7031 23.2969V21.1139C17.1839 20.7712 20.7712 17.1839 21.1139 12.7031H23.2969C23.685 12.7031 24 12.3881 24 12C24 11.6119 23.685 11.2969 23.2969 11.2969ZM12.7031 19.703V19.0312C12.7031 18.6431 12.3881 18.3281 12 18.3281C11.6119 18.3281 11.2969 18.6431 11.2969 19.0312V19.703C7.59187 19.3673 4.63266 16.4081 4.29703 12.7031H4.96875C5.35687 12.7031 5.67188 12.3881 5.67188 12C5.67188 11.6119 5.35687 11.2969 4.96875 11.2969H4.29703C4.63266 7.59187 7.59187 4.63266 11.2969 4.29703V4.96875C11.2969 5.35687 11.6119 5.67188 12 5.67188C12.3881 5.67188 12.7031 5.35687 12.7031 4.96875V4.29703C16.4081 4.63266 19.3673 7.59187 19.703 11.2969H19.0312C18.6431 11.2969 18.3281 11.6119 18.3281 12C18.3281 12.3881 18.6431 12.7031 19.0312 12.7031H19.703C19.3673 16.4081 16.4081 19.3673 12.7031 19.703Z" fill="#023B88"/>
<path d="M2.15625 5.67188C2.54456 5.67188 2.85938 5.35706 2.85938 4.96875V2.85938H4.96875C5.35706 2.85938 5.67188 2.54456 5.67188 2.15625C5.67188 1.76794 5.35706 1.45312 4.96875 1.45312H2.15625C1.76794 1.45312 1.45312 1.76794 1.45312 2.15625V4.96875C1.45312 5.35706 1.76794 5.67188 2.15625 5.67188Z" fill="#023B88"/>
<path d="M4.96875 21.1406H2.85938V19.0312C2.85938 18.6429 2.54456 18.3281 2.15625 18.3281C1.76794 18.3281 1.45312 18.6429 1.45312 19.0312V21.8438C1.45312 22.2321 1.76794 22.5469 2.15625 22.5469H4.96875C5.35706 22.5469 5.67188 22.2321 5.67188 21.8438C5.67188 21.4554 5.35706 21.1406 4.96875 21.1406Z" fill="#023B88"/>
<path d="M21.8438 18.3281C21.4554 18.3281 21.1406 18.6429 21.1406 19.0312V21.1406H19.0312C18.6429 21.1406 18.3281 21.4554 18.3281 21.8438C18.3281 22.2321 18.6429 22.5469 19.0312 22.5469H21.8438C22.2321 22.5469 22.5469 22.2321 22.5469 21.8438V19.0312C22.5469 18.6429 22.2321 18.3281 21.8438 18.3281Z" fill="#023B88"/>
<path d="M19.0312 2.85938H21.1406V4.96875C21.1406 5.35706 21.4554 5.67188 21.8438 5.67188C22.2321 5.67188 22.5469 5.35706 22.5469 4.96875V2.15625C22.5469 1.76794 22.2321 1.45312 21.8438 1.45312H19.0312C18.6429 1.45312 18.3281 1.76794 18.3281 2.15625C18.3281 2.54456 18.6429 2.85938 19.0312 2.85938Z" fill="#023B88"/>
</g>
<defs>
<clipPath id="clip0_6303_14296">
<rect width="24" height="24" fill="white"/>
</clipPath>
</defs>
</svg>
