<svg width="25" height="24" viewBox="0 0 25 24" fill="none" xmlns="http://www.w3.org/2000/svg">
<g id="fi_985765">
<g id="Group">
<g id="Group_2">
<path id="Vector" d="M21.2328 0H4.66406C4.27575 0 3.96094 0.314812 3.96094 0.703124V21.2257C3.96094 21.4122 4.03505 21.5911 4.16686 21.7229L6.23798 23.794C6.51257 24.0686 6.95774 24.0686 7.23238 23.794L8.8063 22.2201L10.3801 23.794C10.512 23.9259 10.6908 24 10.8773 24C11.0638 24 11.2426 23.9259 11.3745 23.794L12.9484 22.2201L14.5223 23.794C14.6541 23.9259 14.833 24 15.0194 24C15.2059 24 15.3848 23.9259 15.5166 23.794L17.0905 22.2201L18.6644 23.794C18.8017 23.9313 18.9816 24 19.1616 24C19.3415 24 19.5215 23.9313 19.6587 23.794L21.7299 21.7229C21.8617 21.5911 21.9358 21.4122 21.9358 21.2257V0.703124C21.936 0.314812 21.6211 0 21.2328 0ZM12.2452 5.28144V4.46877C12.2452 4.08046 12.56 3.76565 12.9483 3.76565C13.3367 3.76565 13.6514 4.08046 13.6514 4.46877V5.27188H14.4546C14.8429 5.27188 15.1578 5.58669 15.1578 5.975C15.1578 6.36332 14.8429 6.67813 14.4546 6.67813H12.4463C12.0035 6.67813 11.6432 7.03841 11.6432 7.48124C11.6432 7.92411 12.0035 8.28444 12.4463 8.28444H13.4505C14.6688 8.28444 15.6599 9.27551 15.6599 10.4938C15.6599 11.6442 14.7759 12.5917 13.6514 12.6936V13.5063C13.6514 13.8946 13.3367 14.2094 12.9483 14.2094C12.56 14.2094 12.2452 13.8946 12.2452 13.5063V12.7031H11.4421C11.0538 12.7031 10.739 12.3883 10.739 12C10.739 11.6117 11.0538 11.2969 11.4421 11.2969H13.4505C13.8934 11.2969 14.2537 10.9366 14.2537 10.4937C14.2537 10.0509 13.8934 9.69064 13.4505 9.69064H12.4463C11.228 9.69064 10.237 8.69947 10.237 7.48119C10.237 6.33078 11.1209 5.3834 12.2452 5.28144ZM16.7141 17.975H9.1828C8.79449 17.975 8.47968 17.6602 8.47968 17.2719C8.47968 16.8835 8.79449 16.5687 9.1828 16.5687H16.7141C17.1023 16.5687 17.4172 16.8835 17.4172 17.2719C17.4172 17.6602 17.1023 17.975 16.7141 17.975Z" fill="white"/>
</g>
</g>
</g>
</svg>
