<svg width="24" height="24" viewBox="0 0 24 24" fill="none" xmlns="http://www.w3.org/2000/svg">
<path fill-rule="evenodd" clip-rule="evenodd" d="M15.0381 4.2959C15.4523 4.2959 15.7881 4.63169 15.7881 5.0459V8.12995C15.7881 8.54416 15.4523 8.87995 15.0381 8.87995C14.6239 8.87995 14.2881 8.54416 14.2881 8.12995V7.29883H2.11328C1.69907 7.29883 1.36328 6.96305 1.36328 6.54883C1.36328 6.13462 1.69907 5.79883 2.11328 5.79883H14.2881V5.0459C14.2881 4.63169 14.6239 4.2959 15.0381 4.2959ZM22.7508 6.54156C22.7549 6.95575 22.4223 7.29478 22.0082 7.2988L17.9738 7.33792C17.5597 7.34194 17.2206 7.00942 17.2166 6.59523C17.2126 6.18103 17.5451 5.84201 17.9593 5.83799L21.9936 5.79887C22.4078 5.79485 22.7468 6.12737 22.7508 6.54156ZM9.04309 9.24762C9.45731 9.24762 9.79309 9.58341 9.79309 9.99762V11.4997V11.5014V13.0817C9.79309 13.4959 9.45731 13.8317 9.04309 13.8317C8.62888 13.8317 8.29309 13.4959 8.29309 13.0817V12.2506H2.11328C1.69907 12.2506 1.36328 11.9148 1.36328 11.5006C1.36328 11.0864 1.69907 10.7506 2.11328 10.7506H8.29309V9.99762C8.29309 9.58341 8.62888 9.24762 9.04309 9.24762ZM11.2509 11.5006C11.2509 11.0864 11.5867 10.7506 12.0009 10.7506H22.0009C22.4151 10.7506 22.7509 11.0864 22.7509 11.5006C22.7509 11.9148 22.4151 12.2506 22.0009 12.2506H12.0009C11.5867 12.2506 11.2509 11.9148 11.2509 11.5006ZM13.0168 15.2115C13.431 15.2115 13.7668 15.5473 13.7668 15.9615V19.0455C13.7668 19.4597 13.431 19.7955 13.0168 19.7955C12.6026 19.7955 12.2668 19.4597 12.2668 19.0455V18.2144H2.47384C2.05962 18.2144 1.72384 17.8786 1.72384 17.4644C1.72384 17.0502 2.05962 16.7144 2.47384 16.7144H12.2668V15.9615C12.2668 15.5473 12.6026 15.2115 13.0168 15.2115ZM23.1115 17.4598C23.114 17.874 22.7803 18.2118 22.3661 18.2144L15.9913 18.2537C15.5771 18.2563 15.2393 17.9225 15.2367 17.5083C15.2342 17.0941 15.5679 16.7563 15.9821 16.7537L22.3568 16.7144C22.7711 16.7119 23.1089 17.0456 23.1115 17.4598Z" fill="white"/>
</svg>
