<svg width="32" height="32" viewBox="0 0 32 32" fill="none" xmlns="http://www.w3.org/2000/svg">
<g clip-path="url(#clip0_4066_17142)">
<path d="M0 9.375L0 22.625C0 27.8027 4.19733 32 9.375 32H22.625C27.8027 32 32 27.8027 32 22.625V9.375C32 4.19733 27.8027 0 22.625 0L9.375 0C4.19733 0 0 4.19733 0 9.375Z" fill="#ACAFB5"/>
<path d="M24 17C24 16.1716 23.3284 15.5 22.5 15.5C21.6716 15.5 21 16.1716 21 17C21 17.8284 21.6716 18.5 22.5 18.5C23.3284 18.5 24 17.8284 24 17Z" fill="white"/>
<path d="M16.5 17C16.5 16.1716 15.8284 15.5 15 15.5C14.1716 15.5 13.5 16.1716 13.5 17C13.5 17.8284 14.1716 18.5 15 18.5C15.8284 18.5 16.5 17.8284 16.5 17Z" fill="white"/>
<path d="M9 17C9 16.1716 8.32843 15.5 7.5 15.5C6.67157 15.5 6 16.1716 6 17C6 17.8284 6.67157 18.5 7.5 18.5C8.32843 18.5 9 17.8284 9 17Z" fill="white"/>
</g>
<defs>
<clipPath id="clip0_4066_17142">
<rect width="32" height="32" fill="white"/>
</clipPath>
</defs>
</svg>
