<svg width="24" height="24" viewBox="0 0 24 24" fill="none" xmlns="http://www.w3.org/2000/svg">
<g clip-path="url(#clip0_4066_20207)">
<path d="M22.5552 3.4767C21.6221 2.54353 20.3814 2.02961 19.0617 2.02961C17.7424 2.02961 16.5021 2.5432 15.5691 3.47581C15.5688 3.47609 15.5684 3.47638 15.5681 3.47666L8.55613 10.4887L5.06055 13.9843C3.96027 15.0846 3.96027 16.8749 5.06055 17.9752C5.59355 18.5082 6.30218 18.8017 7.05597 18.8017C7.80975 18.8017 8.51839 18.5082 9.05139 17.9752L18.8724 8.15414C19.147 7.87949 19.147 7.43421 18.8724 7.15955C18.5977 6.88489 18.1524 6.88489 17.8778 7.15955L8.05679 16.9805C7.78945 17.2479 7.43401 17.3951 7.05597 17.3951C6.67792 17.3951 6.32248 17.2479 6.05514 16.9805C5.78779 16.7132 5.64057 16.3577 5.64057 15.9797C5.64057 15.6017 5.78779 15.2462 6.05514 14.9789L9.55072 11.4832L16.5621 4.47191C16.5623 4.47167 16.5625 4.47148 16.5628 4.47125C17.2302 3.80378 18.1177 3.43615 19.0617 3.43615C20.0057 3.43615 20.8932 3.80373 21.5607 4.47125C22.9384 5.84899 22.9385 8.09071 21.5611 9.46869C21.5609 9.46883 21.5608 9.46897 21.5606 9.46911L11.053 19.9767C8.84903 22.1807 5.26286 22.1807 3.05889 19.9767C0.854919 17.7728 0.854919 14.1866 3.05889 11.9826L12.8799 2.16165C13.1546 1.88699 13.1546 1.44171 12.8799 1.16705C12.6053 0.892395 12.16 0.892395 11.8853 1.16705L2.0643 10.9881C-0.688099 13.7405 -0.688099 18.219 2.0643 20.9714C3.39764 22.3047 5.17035 23.039 7.05592 23.039C8.94153 23.039 10.7142 22.3047 12.0476 20.9714L22.5545 10.4644C22.5547 10.4642 22.555 10.464 22.5552 10.4637C24.4816 8.53739 24.4816 5.40302 22.5552 3.4767Z" fill="#ACAFB5"/>
</g>
<defs>
<clipPath id="clip0_4066_20207">
<rect width="24" height="24" fill="white"/>
</clipPath>
</defs>
</svg>
