<svg width="42" height="42" viewBox="0 0 42 42" fill="none" xmlns="http://www.w3.org/2000/svg">
<path fill-rule="evenodd" clip-rule="evenodd" d="M13.4221 3.49854H28.5946C34.5271 3.49854 38.4996 7.66354 38.4996 13.8585V28.1578C38.4996 34.3353 34.5271 38.4985 28.5946 38.4985H13.4221C7.48963 38.4985 3.49963 34.3353 3.49963 28.1578V13.8585C3.49963 7.66354 7.48963 3.49854 13.4221 3.49854ZM26.2671 26.2485C26.8621 25.6553 26.8621 24.6928 26.2671 24.0978L23.1521 20.9828L26.2671 17.866C26.8621 17.2728 26.8621 16.2928 26.2671 15.6978C25.6721 15.101 24.7096 15.101 24.0971 15.6978L20.9996 18.811L17.8846 15.6978C17.2721 15.101 16.3096 15.101 15.7146 15.6978C15.1196 16.2928 15.1196 17.2728 15.7146 17.866L18.8296 20.9828L15.7146 24.0803C15.1196 24.6928 15.1196 25.6553 15.7146 26.2485C16.0121 26.546 16.4146 26.7053 16.7996 26.7053C17.2021 26.7053 17.5871 26.546 17.8846 26.2485L20.9996 23.1528L24.1146 26.2485C24.4121 26.5653 24.7971 26.7053 25.1821 26.7053C25.5846 26.7053 25.9696 26.546 26.2671 26.2485Z" fill="#ACAFB5"/>
</svg>
