<svg width="20" height="20" viewBox="0 0 20 20" fill="none" xmlns="http://www.w3.org/2000/svg">
<path d="M6.4 14.6393L10 11.1259L13.6 14.6393L15 13.273L11.4 9.75953L15 6.2461L13.6 4.87977L10 8.3932L6.4 4.87977L5 6.2461L8.6 9.75953L5 13.273L6.4 14.6393ZM10 19.5191C8.61667 19.5191 7.31667 19.2629 6.1 18.7505C4.88333 18.2381 3.825 17.5428 2.925 16.6644C2.025 15.786 1.3125 14.7532 0.7875 13.5658C0.2625 12.3783 0 11.1096 0 9.75953C0 8.40947 0.2625 7.14073 0.7875 5.95332C1.3125 4.76591 2.025 3.73302 2.925 2.85466C3.825 1.97631 4.88333 1.28094 6.1 0.768563C7.31667 0.256188 8.61667 0 10 0C11.3833 0 12.6833 0.256188 13.9 0.768563C15.1167 1.28094 16.175 1.97631 17.075 2.85466C17.975 3.73302 18.6875 4.76591 19.2125 5.95332C19.7375 7.14073 20 8.40947 20 9.75953C20 11.1096 19.7375 12.3783 19.2125 13.5658C18.6875 14.7532 17.975 15.786 17.075 16.6644C16.175 17.5428 15.1167 18.2381 13.9 18.7505C12.6833 19.2629 11.3833 19.5191 10 19.5191Z" fill="#ACAFB5"/>
</svg>
